<?xml version="1.0" encoding="UTF-8"?>
<svg version="1.1" xmlns="http://www.w3.org/2000/svg" width="822" height="244">
<path d="M0 0 C271.26 0 542.52 0 822 0 C822 80.52 822 161.04 822 244 C550.74 244 279.48 244 0 244 C0 163.48 0 82.96 0 0 Z " fill="#020202" transform="translate(0,0)"/>
<path d="M0 0 C8.04175912 4.63947641 14.13125269 9.42679262 17.5625 18.25 C19.31481746 27.48949207 18.1691139 34.95679918 12.89453125 42.921875 C7.14099461 50.1407896 0.51885568 52.15702183 -8.12084961 54.30981445 C-13.60457723 55.7234975 -18.11031461 57.65273377 -22.75 60.875 C-23.37261719 61.30425781 -23.99523437 61.73351562 -24.63671875 62.17578125 C-30.44041843 66.64500769 -34.44235833 72.95207499 -36.75 79.875 C-22.91509732 83.62381234 -10.00957351 84.99413703 3.07568359 77.8828125 C5.63025901 76.38082601 8.14321014 74.81755067 10.65454102 73.24462891 C19.81355349 67.56086552 29.26718551 63.16443064 40.25 64.875 C47.74116728 66.76096195 55.11632711 70.14222771 61.25 74.875 C61.58 75.865 61.91 76.855 62.25 77.875 C63.24 78.205 64.23 78.535 65.25 78.875 C66.53125 80.44140625 66.53125 80.44140625 67.75 82.4375 C68.1521875 83.07816406 68.554375 83.71882813 68.96875 84.37890625 C72.29435347 90.8577496 73.78679188 96.45165623 73.6875 103.75 C73.67920166 104.54011475 73.67090332 105.33022949 73.66235352 106.14428711 C73.32864388 117.69824089 68.42001349 125.87110226 60.21875 133.8515625 C51.86258437 140.96641367 42.2939238 143.65571326 31.40625 143.25390625 C20.56112838 141.95195477 10.9332765 135.93448321 2.1875 129.6875 C-7.73302577 123.56632453 -18.43555509 122.1410831 -29.859375 124.5234375 C-32.95924039 125.4283115 -35.86185846 126.43092923 -38.75 127.875 C-36.10964858 137.90833541 -29.85720426 147.2275249 -20.91796875 152.56640625 C-16.557271 154.84274533 -12.3129135 156.90831351 -7.5 158 C0.90425841 159.96099363 6.31790067 163.75085652 11.25 170.875 C14.45573738 176.5361958 15.12662268 182.46967745 14.25 188.875 C12.03399003 196.82889292 6.82820176 203.9611479 -0.1875 208.375 C-7.20612208 211.41229845 -16.59021824 211.25619861 -23.76171875 208.875 C-32.26119786 204.29335123 -37.00215262 196.87577813 -39.75 187.8125 C-42.6902256 178.13580814 -49.16102776 171.10424808 -57.75 165.875 C-62.30728987 163.81016893 -66.70375535 161.875 -71.75 161.875 C-72.224375 162.926875 -72.69875 163.97875 -73.1875 165.0625 C-73.45433594 165.65417969 -73.72117187 166.24585938 -73.99609375 166.85546875 C-75.82026986 171.74199231 -75.93267303 176.58514097 -75.9375 181.75 C-75.94974609 182.43191406 -75.96199219 183.11382812 -75.97460938 183.81640625 C-75.98802626 188.51231608 -75.09948544 192.34718978 -73.75 196.875 C-72.9590458 204.51782484 -72.89902866 211.60737331 -77.75 217.875 C-82.6592595 223.31868522 -88.14495046 226.32966519 -95.421875 227.19140625 C-101.72602761 227.46133544 -106.65228775 226.72517085 -111.75 222.875 C-117.10090995 217.9047872 -120.53209617 213.42071602 -120.890625 205.94140625 C-121.00999712 197.65499137 -121.00999712 197.65499137 -119.75 193.875 C-118.72221501 179.5594234 -120.29063809 168.32536541 -129.73046875 156.890625 C-132.63345833 153.99325049 -135.91377168 151.86365048 -139.328125 149.61328125 C-143.13722927 146.87932738 -145.92301735 143.58628511 -148.75 139.875 C-149.27335938 139.19824219 -149.79671875 138.52148438 -150.3359375 137.82421875 C-159.99578724 124.41320908 -163.87156055 107.05187995 -161.25 90.76953125 C-157.44774898 74.06987193 -148.73264154 59.59073537 -134.3125 50.125 C-123.78172023 43.73079209 -114.38590994 40.49514171 -102.0625 40.5625 C-100.5942981 40.56443359 -100.5942981 40.56443359 -99.09643555 40.56640625 C-92.85008101 40.64939361 -87.33972044 41.38760216 -81.33984375 43.1953125 C-70.12679725 46.13810298 -59.93121377 42.44302635 -50.26953125 36.86328125 C-42.67347438 30.86887358 -38.64960911 23.39787528 -34.66601562 14.765625 C-31.08579554 7.47627346 -26.42570691 3.99560014 -19.5 0 C-12.94457741 -1.96662678 -6.55542259 -1.96662678 0 0 Z " fill="#FCFCFC" transform="translate(739.75,14.125)"/>
<path d="M0 0 C21 0 21 0 28 4 C30.52487512 7.26194777 30.25789279 10.60180615 30.265625 14.62890625 C30.26949219 16.55186523 30.26949219 16.55186523 30.2734375 18.51367188 C30.26715332 19.5103186 30.26715332 19.5103186 30.26074219 20.52709961 C30.25001644 22.55938445 30.26066373 24.59078904 30.2734375 26.62304688 C30.27085938 27.90373047 30.26828125 29.18441406 30.265625 30.50390625 C30.26336914 31.67767822 30.26111328 32.8514502 30.25878906 34.06079102 C30 37 30 37 28 40 C28.34605611 42.28397032 28.96704519 43.93409037 30 46 C30.12287863 48.41065531 30.18832782 50.7913248 30.203125 53.203125 C30.20882507 53.91853455 30.21452515 54.63394409 30.22039795 55.37103271 C30.2298507 56.88747682 30.23638303 58.40394148 30.24023438 59.92041016 C30.24990467 62.22725973 30.28090897 64.5332047 30.3125 66.83984375 C30.31903389 68.31509889 30.32428284 69.79036039 30.328125 71.265625 C30.3404718 71.9502179 30.3528186 72.63481079 30.36553955 73.34014893 C30.34429948 77.96720599 29.62593939 81.17102361 27 85 C21 88 21 88 0 88 C0 58.96 0 29.92 0 0 Z " fill="#F5F5F5" transform="translate(15,57)"/>
<path d="M0 0 C4.27193276 2.4958728 6.01562079 4.28250201 7.5703125 9.05859375 C7.83100891 12.23226929 7.83100891 12.23226929 7.8449707 15.84912109 C7.8526371 16.84284477 7.8526371 16.84284477 7.86045837 17.85664368 C7.87430257 20.03603271 7.87340138 22.2151036 7.87109375 24.39453125 C7.87498392 25.91761389 7.87931925 27.44069546 7.88407898 28.96377563 C7.89153035 32.15296956 7.89125809 35.34205276 7.88598633 38.53125 C7.88019725 42.60543901 7.89711402 46.67917259 7.920331 50.75328636 C7.93510962 53.89841331 7.93593438 57.04343167 7.93282127 60.18858719 C7.93333255 61.68999762 7.93853378 63.19141444 7.94863319 64.69279099 C7.96105924 66.79858162 7.95416996 68.90349923 7.94262695 71.00927734 C7.94325638 72.20442963 7.9438858 73.39958191 7.9445343 74.63095093 C7.42236094 79.41373957 6.17584021 83.55341152 2.5703125 86.93359375 C-2.70199856 89.89926872 -8.55637119 89.8770688 -14.4296875 89.05859375 C-18.51987845 86.87162194 -20.96180095 84.4622534 -22.4296875 80.05859375 C-22.53469936 77.77017033 -22.57838 75.47878607 -22.59082031 73.18798828 C-22.59578522 72.49332458 -22.60075012 71.79866089 -22.60586548 71.08294678 C-22.62046579 68.78575651 -22.62728534 66.48863529 -22.6328125 64.19140625 C-22.63856549 62.59341429 -22.64432321 60.99542235 -22.65008545 59.39743042 C-22.66058922 56.04668863 -22.66643604 52.69597078 -22.66992188 49.34521484 C-22.67540683 45.05557659 -22.6994373 40.76625571 -22.72789383 36.476717 C-22.74653395 33.17555826 -22.75172652 29.8744758 -22.75325775 26.57326889 C-22.75628147 24.9920465 -22.76430054 23.41082536 -22.77744293 21.82965469 C-22.79453347 19.61552137 -22.79261634 17.40216114 -22.78613281 15.18798828 C-22.78977844 13.92906769 -22.79342407 12.67014709 -22.79718018 11.37307739 C-22.26452243 6.56893978 -20.1275786 3.14016967 -16.4296875 0.05859375 C-11.13387835 -1.70667597 -5.26531854 -2.04009931 0 0 Z " fill="#F5F5F5" transform="translate(421.4296875,56.94140625)"/>
<path d="M0 0 C3.49489223 1.98729166 5.01567028 3.45061445 7.1875 6.8125 C7.68870544 10.15148926 7.68870544 10.15148926 7.68920898 14.00195312 C7.69461197 14.70666245 7.70001495 15.41137177 7.70558167 16.13743591 C7.71804398 18.45664035 7.70159615 20.77459721 7.68359375 23.09375 C7.6837488 24.71130437 7.68523874 26.32885912 7.68800354 27.94641113 C7.6893864 31.33244296 7.67684875 34.71805063 7.65405273 38.10400391 C7.62566815 42.43850329 7.62840678 46.77229816 7.64114285 51.10684967 C7.64810664 54.44580067 7.6403028 57.78458959 7.62788582 61.1235199 C7.62337811 62.72146482 7.62302857 64.31942719 7.62695122 65.91737366 C7.6298704 68.15295924 7.61332419 70.38758302 7.59155273 72.62304688 C7.58614975 73.89369995 7.58074677 75.16435303 7.57518005 76.47351074 C7.0165294 81.28502609 4.89554826 84.72245978 1.1875 87.8125 C-4.85898579 89.82799526 -11.54629973 89.80644749 -17.375 87.25 C-22.16895874 82.45604126 -23.18747423 77.37679496 -23.20068359 70.77905273 C-23.20594055 70.11467194 -23.21119751 69.45029114 -23.21661377 68.76577759 C-23.22970633 66.59230312 -23.2211158 64.4195743 -23.2109375 62.24609375 C-23.2129611 60.72347372 -23.21587492 59.20085464 -23.21963501 57.67823792 C-23.22404358 54.4967419 -23.21767407 51.31549959 -23.20361328 48.1340332 C-23.18650741 44.06650103 -23.19638037 39.99956219 -23.21433067 35.93205166 C-23.22519596 32.7912401 -23.2217099 29.65056814 -23.2139473 26.50975227 C-23.21195362 25.01031485 -23.21437518 23.51086454 -23.22138596 22.01144218 C-23.22904777 19.91280635 -23.21733255 17.81511838 -23.20068359 15.71655273 C-23.19829681 14.52521225 -23.19591003 13.33387177 -23.19345093 12.10643005 C-22.66492323 7.53646276 -21.24354162 4.10938147 -17.8125 1 C-12.18261718 -2.34274292 -6.05536128 -1.88609614 0 0 Z " fill="#F4F4F4" transform="translate(356.8125,57.1875)"/>
<path d="M0 0 C4.29 0 8.58 0 13 0 C14.98 12.87 16.96 25.74 19 39 C19.33 26.13 19.66 13.26 20 0 C23.63 0 27.26 0 31 0 C31 29.04 31 58.08 31 88 C26.71 88 22.42 88 18 88 C17.37402066 83.95848291 16.74919793 79.91679229 16.125 75.875 C15.95097656 74.75222656 15.77695312 73.62945312 15.59765625 72.47265625 C14.34025398 64.3228267 13.15058169 56.16556828 12 48 C11.97494385 49.20648193 11.9498877 50.41296387 11.92407227 51.65600586 C11.83017477 56.11575661 11.72991167 60.57534513 11.62768555 65.03491211 C11.58426959 66.96814185 11.54259958 68.90141159 11.50268555 70.8347168 C11.44514369 73.60738202 11.3814038 76.37984457 11.31640625 79.15234375 C11.29133751 80.45702858 11.29133751 80.45702858 11.26576233 81.78807068 C11.11387171 87.88612829 11.11387171 87.88612829 10 89 C6.7 89 3.4 89 0 89 C0 59.63 0 30.26 0 0 Z " fill="#EEEEEE" transform="translate(299,57)"/>
<path d="M0 0 C3.63 0 7.26 0 11 0 C11 12.21 11 24.42 11 37 C13.97 37 16.94 37 20 37 C20 24.79 20 12.58 20 0 C23.63 0 27.26 0 31 0 C31 29.37 31 58.74 31 89 C27.37 89 23.74 89 20 89 C20 74.81 20 60.62 20 46 C17.03 46 14.06 46 11 46 C11 59.86 11 73.72 11 88 C7.37 88 3.74 88 0 88 C0 58.96 0 29.92 0 0 Z " fill="#F1F1F1" transform="translate(264,57)"/>
<path d="M0 0 C3.78330756 2.22412626 5.34494192 4.03744934 6.5625 8.375 C6.83501211 12.72471248 6.88594628 17.02713559 6.5625 21.375 C5.5625 22.375 5.5625 22.375 3.05859375 22.47265625 C0.2265625 22.44010417 -2.60546875 22.40755208 -5.4375 22.375 C-5.4375 17.755 -5.4375 13.135 -5.4375 8.375 C-7.7475 8.375 -10.0575 8.375 -12.4375 8.375 C-12.1075 31.145 -11.7775 53.915 -11.4375 77.375 C-9.4575 77.705 -7.4775 78.035 -5.4375 78.375 C-5.1075 67.485 -4.7775 56.595 -4.4375 45.375 C-5.7575 45.375 -7.0775 45.375 -8.4375 45.375 C-8.4375 42.075 -8.4375 38.775 -8.4375 35.375 C-3.4875 35.375 1.4625 35.375 6.5625 35.375 C6.61200439 41.26488016 6.6482692 47.1546387 6.67236328 53.04467773 C6.68240963 55.04762889 6.69604909 57.05056542 6.71337891 59.0534668 C6.73768713 61.93542088 6.74899687 64.81718072 6.7578125 67.69921875 C6.76813507 68.59211105 6.77845764 69.48500336 6.78909302 70.404953 C6.79019546 76.53884782 6.32851252 80.43238623 2.0625 85.125 C-1.69651953 88.50811758 -3.75083209 88.55706114 -8.75 88.625 C-10.44576172 88.66367188 -10.44576172 88.66367188 -12.17578125 88.703125 C-15.97609723 88.32081776 -17.56089864 87.89985614 -20.4375 85.375 C-25.39255227 77.91372143 -25.02501531 69.75895048 -24.96875 61.12109375 C-24.9714505 59.65096277 -24.97533755 58.18083354 -24.98034668 56.71070862 C-24.98621376 53.64363441 -24.97776889 50.57702907 -24.95898438 47.51000977 C-24.93617543 43.59725673 -24.94934675 39.68560031 -24.97327423 35.77288723 C-24.9877913 32.74176403 -24.98309978 29.710897 -24.97276306 26.6797657 C-24.97011308 25.23780242 -24.97330406 23.79581515 -24.98268127 22.35387993 C-25.02339378 14.3373906 -24.97596478 8.1478579 -20.4375 1.375 C-14.53193824 -3.12447563 -6.62831825 -2.91743658 0 0 Z " fill="#F0F0F0" transform="translate(457.4375,57.625)"/>
<path d="M0 0 C3.34461564 2.88888279 4.56206588 5.89452694 4.92504883 10.29052734 C4.98674015 13.64419962 4.95271078 16.98256261 4.87890625 20.3359375 C4.85860352 22.08390625 4.85860352 22.08390625 4.83789062 23.8671875 C4.80266788 26.73197043 4.74886496 29.59651428 4.69140625 32.4609375 C1.06140625 32.4609375 -2.56859375 32.4609375 -6.30859375 32.4609375 C-6.80359375 20.5809375 -6.80359375 20.5809375 -7.30859375 8.4609375 C-9.28859375 8.4609375 -11.26859375 8.4609375 -13.30859375 8.4609375 C-13.30859375 30.9009375 -13.30859375 53.3409375 -13.30859375 76.4609375 C-11.32859375 76.7909375 -9.34859375 77.1209375 -7.30859375 77.4609375 C-6.97859375 69.2109375 -6.64859375 60.9609375 -6.30859375 52.4609375 C-2.67859375 52.4609375 0.95140625 52.4609375 4.69140625 52.4609375 C4.77248792 56.50300889 4.83195254 60.54344658 4.87890625 64.5859375 C4.90404297 65.72804688 4.92917969 66.87015625 4.95507812 68.046875 C5.04759037 78.65494592 5.04759037 78.65494592 1.69140625 83.4609375 C-2.20818082 87.36052457 -5.55632228 87.7603135 -10.87109375 87.8984375 C-15.59398662 87.89287461 -18.63877939 87.54455855 -22.30859375 84.4609375 C-27.16744222 77.13565994 -26.87975238 70.08777563 -26.8046875 61.5234375 C-26.80484277 60.07429939 -26.8063363 58.62516088 -26.80909729 57.17602539 C-26.810476 54.15003937 -26.79801298 51.12453037 -26.77514648 48.09863281 C-26.74676293 44.23867274 -26.74950603 40.37950411 -26.7622366 36.51948547 C-26.76922367 33.53040929 -26.76137019 30.54151292 -26.74897957 27.55245972 C-26.7444944 26.13004244 -26.74410233 24.70760565 -26.74804497 23.28518677 C-26.77252905 6.68260865 -26.77252905 6.68260865 -21.30859375 0.0234375 C-15.15792235 -4.78177453 -6.52593634 -3.18803571 0 0 Z " fill="#F0F0F0" transform="translate(255.30859375,58.5390625)"/>
<path d="M0 0 C2.94546336 2.54411847 4.46849612 5.56631788 4.92504883 9.44677734 C4.98544949 11.58491091 4.95428006 13.69841366 4.87890625 15.8359375 C4.85860352 16.94001953 4.85860352 16.94001953 4.83789062 18.06640625 C4.80285494 19.86490493 4.74905913 21.66302172 4.69140625 23.4609375 C1.06140625 23.4609375 -2.56859375 23.4609375 -6.30859375 23.4609375 C-6.63859375 18.5109375 -6.96859375 13.5609375 -7.30859375 8.4609375 C-9.28859375 8.4609375 -11.26859375 8.4609375 -13.30859375 8.4609375 C-14.33826787 23.92893095 -9.04156114 33.7788713 -1.14331055 46.61206055 C4.79542914 56.44684397 6.67882954 67.48126585 4.15625 78.87890625 C2.78383212 82.39619578 0.96716128 84.61832529 -2.30859375 86.4609375 C-7.25015553 88.10812476 -12.1637003 88.1779033 -17.30859375 87.4609375 C-21.3987847 85.27396569 -23.8407072 82.86459715 -25.30859375 78.4609375 C-25.38832851 77.12568033 -25.41630713 75.78681667 -25.40625 74.44921875 C-25.40302734 73.69189453 -25.39980469 72.93457031 -25.39648438 72.15429688 C-25.38810547 71.36861328 -25.37972656 70.58292969 -25.37109375 69.7734375 C-25.36658203 68.97615234 -25.36207031 68.17886719 -25.35742188 67.35742188 C-25.34565225 65.39189493 -25.32771723 63.42640665 -25.30859375 61.4609375 C-21.67859375 61.4609375 -18.04859375 61.4609375 -14.30859375 61.4609375 C-13.97859375 66.4109375 -13.64859375 71.3609375 -13.30859375 76.4609375 C-11.65859375 76.4609375 -10.00859375 76.4609375 -8.30859375 76.4609375 C-6.57117619 74.72351994 -7.05391785 72.45368239 -6.99609375 70.0859375 C-7.16301787 59.17166801 -11.72112218 51.2612718 -17.60302734 42.38183594 C-23.21164351 33.85121065 -25.97420838 27.02760559 -25.74609375 16.7109375 C-25.75318359 15.79183594 -25.76027344 14.87273437 -25.76757812 13.92578125 C-25.71057482 7.86589171 -24.81413553 4.38406957 -20.80859375 -0.2890625 C-15.11342828 -5.03503372 -6.02615394 -2.94388313 0 0 Z " fill="#F5F5F5" transform="translate(539.30859375,58.5390625)"/>
<path d="M0 0 C8.58 0 17.16 0 26 0 C26 2.97 26 5.94 26 9 C21.05 9 16.1 9 11 9 C11 18.24 11 27.48 11 37 C14.63 37 18.26 37 22 37 C22 39.97 22 42.94 22 46 C18.37 46 14.74 46 11 46 C11 56.89 11 67.78 11 79 C15.95 79 20.9 79 26 79 C26 81.97 26 84.94 26 88 C17.42 88 8.84 88 0 88 C0 58.96 0 29.92 0 0 Z " fill="#FBFBFB" transform="translate(484,57)"/>
<path d="M0 0 C8.58 0 17.16 0 26 0 C26 2.97 26 5.94 26 9 C21.05 9 16.1 9 11 9 C11 18.24 11 27.48 11 37 C14.63 37 18.26 37 22 37 C22 39.97 22 42.94 22 46 C18.37 46 14.74 46 11 46 C11 56.89 11 67.78 11 79 C15.95 79 20.9 79 26 79 C26 81.97 26 84.94 26 88 C17.42 88 8.84 88 0 88 C0 58.96 0 29.92 0 0 Z " fill="#FAFAFA" transform="translate(112,57)"/>
<path d="M0 0 C8.58 0 17.16 0 26 0 C26 2.97 26 5.94 26 9 C21.05 9 16.1 9 11 9 C11 18.24 11 27.48 11 37 C14.63 37 18.26 37 22 37 C22 39.97 22 42.94 22 46 C18.37 46 14.74 46 11 46 C11 56.89 11 67.78 11 79 C15.95 79 20.9 79 26 79 C26 81.97 26 84.94 26 88 C17.42 88 8.84 88 0 88 C0 58.96 0 29.92 0 0 Z " fill="#FBFBFB" transform="translate(50,57)"/>
<path d="M0 0 C8.58 0 17.16 0 26 0 C26 2.97 26 5.94 26 9 C20.72 9 15.44 9 10 9 C10 18.24 10 27.48 10 37 C13.96 37 17.92 37 22 37 C22 39.97 22 42.94 22 46 C18.37 46 14.74 46 11 46 C11 56.89 11 67.78 11 79 C15.95 79 20.9 79 26 79 C26 81.97 26 84.94 26 88 C17.42 88 8.84 88 0 88 C0 58.96 0 29.92 0 0 Z " fill="#F8F8F8" transform="translate(200,57)"/>
<path d="M0 0 C10.89 0 21.78 0 33 0 C33 2.97 33 5.94 33 9 C29.37 9 25.74 9 22 9 C22 35.07 22 61.14 22 88 C18.37 88 14.74 88 11 88 C11 61.93 11 35.86 11 9 C7.37 9 3.74 9 0 9 C0 6.03 0 3.06 0 0 Z " fill="#FAFAFA" transform="translate(162,57)"/>
<path d="M0 0 C3.63 0 7.26 0 11 0 C11 26.07 11 52.14 11 79 C15.95 79 20.9 79 26 79 C26 81.97 26 84.94 26 88 C17.42 88 8.84 88 0 88 C0 58.96 0 29.92 0 0 Z " fill="#FBFBFB" transform="translate(369,57)"/>
<path d="M0 0 C3.63 0 7.26 0 11 0 C11 26.07 11 52.14 11 79 C15.95 79 20.9 79 26 79 C26 81.97 26 84.94 26 88 C17.42 88 8.84 88 0 88 C0 58.96 0 29.92 0 0 Z " fill="#FBFBFB" transform="translate(81,57)"/>
<path d="M0 0 C3.63 0 7.26 0 11 0 C11 29.37 11 58.74 11 89 C7.37 89 3.74 89 0 89 C0 59.63 0 30.26 0 0 Z " fill="#F3F3F3" transform="translate(468,57)"/>
<path d="M0 0 C0.66 0 1.32 0 2 0 C2 9.57 2 19.14 2 29 C-7 30 -7 30 -9.5625 28.1875 C-11 26 -11 26 -11 24 C-11.66 24 -12.32 24 -13 24 C-13.433125 25.2065625 -13.433125 25.2065625 -13.875 26.4375 C-15 29 -15 29 -17 30 C-20.24251686 30.28195799 -22.29978597 30.39849579 -25.16210938 28.76953125 C-27 27 -27 27 -27.51757812 24.87109375 C-27.52208984 24.06800781 -27.52660156 23.26492187 -27.53125 22.4375 C-27.53640625 21.55835938 -27.5415625 20.67921875 -27.546875 19.7734375 C-27.53140625 18.85820312 -27.5159375 17.94296875 -27.5 17 C-27.51546875 16.08476562 -27.5309375 15.16953125 -27.546875 14.2265625 C-27.54171875 13.34742188 -27.5365625 12.46828125 -27.53125 11.5625 C-27.52673828 10.75941406 -27.52222656 9.95632812 -27.51757812 9.12890625 C-27 7 -27 7 -25.15820312 5.234375 C-22.26651611 3.58048704 -20.28100443 3.65095698 -17 4 C-14 6 -14 6 -13.48828125 8.3828125 C-13.40126953 9.74019531 -13.40126953 9.74019531 -13.3125 11.125 C-13.21388672 12.49011719 -13.21388672 12.49011719 -13.11328125 13.8828125 C-13.07589844 14.58148438 -13.03851563 15.28015625 -13 16 C-12.9175 14.948125 -12.835 13.89625 -12.75 12.8125 C-11.92928336 8.64052372 -11.16049385 6.81881884 -8 4 C-4.81894588 3.61827351 -2.87470493 3.56264754 0 5 C0 3.35 0 1.7 0 0 Z " fill="#191A19" transform="translate(449,165)"/>
<path d="M0 0 C3 0.125 3 0.125 4 1.125 C4.09948193 3.23637901 4.12799638 5.35112286 4.12939453 7.46484375 C4.13114685 8.12662628 4.13289917 8.78840881 4.13470459 9.47024536 C4.13912217 11.6676899 4.13618547 13.86505458 4.1328125 16.0625 C4.13348557 17.58325211 4.13445561 19.10400412 4.13571167 20.62475586 C4.13718851 23.81592836 4.13503452 27.00707292 4.13037109 30.19824219 C4.1246738 34.2976453 4.12795288 38.39698296 4.13394356 42.49638367 C4.13754954 45.63782244 4.13641042 48.77924558 4.13381577 51.92068481 C4.1331466 53.43262744 4.13397457 54.94457146 4.13629532 56.45651245 C4.13882245 58.56609887 4.13498044 60.67557787 4.12939453 62.78515625 C4.12859894 63.98793213 4.12780334 65.19070801 4.12698364 66.42993164 C4 69.125 4 69.125 3 70.125 C0 70.25 0 70.25 -3 70.125 C-4.84797201 68.27702799 -4.12775947 65.25703923 -4.12939453 62.78515625 C-4.13202301 61.79248245 -4.13202301 61.79248245 -4.13470459 60.77975464 C-4.13912217 58.5823101 -4.13618547 56.38494542 -4.1328125 54.1875 C-4.13348557 52.66674789 -4.13445561 51.14599588 -4.13571167 49.62524414 C-4.13718851 46.43407164 -4.13503452 43.24292708 -4.13037109 40.05175781 C-4.1246738 35.9523547 -4.12795288 31.85301704 -4.13394356 27.75361633 C-4.13754954 24.61217756 -4.13641042 21.47075442 -4.13381577 18.32931519 C-4.1331466 16.81737256 -4.13397457 15.30542854 -4.13629532 13.79348755 C-4.13882245 11.68390113 -4.13498044 9.57442213 -4.12939453 7.46484375 C-4.12859894 6.26206787 -4.12780334 5.05929199 -4.12698364 3.82006836 C-3.94793596 0.02000603 -3.84233186 0.16009716 0 0 Z " fill="#0C0C0C" transform="translate(349,65.875)"/>
<path d="M0 0 C3 0.125 3 0.125 4 1.125 C4.09943852 3.20045952 4.12799595 5.27933792 4.12939453 7.35717773 C4.13114685 8.0076004 4.13289917 8.65802307 4.13470459 9.32815552 C4.13912267 11.48832837 4.13618495 13.64842 4.1328125 15.80859375 C4.13348563 17.30452999 4.13445574 18.80046612 4.13571167 20.29640198 C4.13718865 23.43630003 4.1350344 26.57616969 4.13037109 29.71606445 C4.12467871 33.74586725 4.12794969 37.77560337 4.13394356 41.80540371 C4.13755336 44.89627079 4.13640856 47.98712202 4.13381577 51.07798958 C4.1331474 52.5639859 4.13397176 54.04998366 4.13629532 55.53597832 C4.13882816 57.61183369 4.13497209 59.68758047 4.12939453 61.76342773 C4.12859894 62.94621811 4.12780334 64.12900848 4.12698364 65.34764099 C4 68.125 4 68.125 3 70.125 C1.00045254 70.16754356 -1.00041636 70.16580783 -3 70.125 C-4.84797201 68.27702799 -4.12775947 65.25703923 -4.12939453 62.78515625 C-4.13202301 61.79248245 -4.13202301 61.79248245 -4.13470459 60.77975464 C-4.13912217 58.5823101 -4.13618547 56.38494542 -4.1328125 54.1875 C-4.13348557 52.66674789 -4.13445561 51.14599588 -4.13571167 49.62524414 C-4.13718851 46.43407164 -4.13503452 43.24292708 -4.13037109 40.05175781 C-4.1246738 35.9523547 -4.12795288 31.85301704 -4.13394356 27.75361633 C-4.13754954 24.61217756 -4.13641042 21.47075442 -4.13381577 18.32931519 C-4.1331466 16.81737256 -4.13397457 15.30542854 -4.13629532 13.79348755 C-4.13882245 11.68390113 -4.13498044 9.57442213 -4.12939453 7.46484375 C-4.12859894 6.26206787 -4.12780334 5.05929199 -4.12698364 3.82006836 C-3.94793596 0.02000603 -3.84233186 0.16009716 0 0 Z " fill="#0F0F0F" transform="translate(414,65.875)"/>
<path d="M0 0 C0.66 0 1.32 0 2 0 C2 1.98 2 3.96 2 6 C2.66 5.67 3.32 5.34 4 5 C7 4.8125 7 4.8125 10 5 C12 7 12 7 12.22705078 9.24658203 C12.21134033 10.61339111 12.21134033 10.61339111 12.1953125 12.0078125 C12.18564453 13.48701172 12.18564453 13.48701172 12.17578125 14.99609375 C12.15902344 16.02863281 12.14226562 17.06117188 12.125 18.125 C12.11597656 19.16527344 12.10695313 20.20554688 12.09765625 21.27734375 C12.07403747 23.85179092 12.04110149 26.42578212 12 29 C7.99681565 31.29257254 5.51356535 31.00301452 1 30 C-1 28 -1 28 -1.24291992 25.31030273 C-1.23881104 24.19598877 -1.23470215 23.0816748 -1.23046875 21.93359375 C-1.22853516 20.72638672 -1.22660156 19.51917969 -1.22460938 18.27539062 C-1.21236328 17.00888672 -1.20011719 15.74238281 -1.1875 14.4375 C-1.18685547 13.16712891 -1.18621094 11.89675781 -1.18554688 10.58789062 C-1.14010053 1.14010053 -1.14010053 1.14010053 0 0 Z " fill="#040404" transform="translate(285,164)"/>
<path d="M0 0 C1.32 0 2.64 0 4 0 C5.010625 -0.061875 6.02125 -0.12375 7.0625 -0.1875 C10 0 10 0 11.65869141 1.2265625 C13.36158503 3.47807675 13.38662411 4.7587894 13.3984375 7.5625 C13.40230469 8.44164062 13.40617188 9.32078125 13.41015625 10.2265625 C13.39855469 11.14179688 13.38695312 12.05703125 13.375 13 C13.38660156 13.91523438 13.39820313 14.83046875 13.41015625 15.7734375 C13.40628906 16.65257812 13.40242187 17.53171875 13.3984375 18.4375 C13.39505371 19.24058594 13.39166992 20.04367188 13.38818359 20.87109375 C12.90970409 23.49520775 12.10092065 24.4015082 10 26 C7.21464152 26.10118893 4.76464243 25.49854208 2 25 C2 26.32 2 27.64 2 29 C1.34 29 0.68 29 0 29 C0 19.43 0 9.86 0 0 Z " fill="#4C4C4C" transform="translate(508,169)"/>
<path d="M0 0 C2.16252919 1.58296263 2.90093898 2.47805915 3.40405273 5.12890625 C3.43591402 7.75364415 3.45783403 10.37506197 3.4375 13 C3.45748047 13.91523438 3.47746094 14.83046875 3.49804688 15.7734375 C3.49740234 16.65257812 3.49675781 17.53171875 3.49609375 18.4375 C3.49794678 19.24058594 3.4997998 20.04367188 3.50170898 20.87109375 C3 23 3 23 1.16040039 24.76171875 C-1.75544736 26.43300136 -3.6924983 26.42223426 -7 26 C-9.13629734 24.40516631 -9.90581347 23.51654501 -10.38818359 20.87109375 C-10.39156738 20.06800781 -10.39495117 19.26492187 -10.3984375 18.4375 C-10.40230469 17.55835938 -10.40617187 16.67921875 -10.41015625 15.7734375 C-10.39855469 14.85820312 -10.38695312 13.94296875 -10.375 13 C-10.39240234 11.62714844 -10.39240234 11.62714844 -10.41015625 10.2265625 C-10.40628906 9.34742188 -10.40242188 8.46828125 -10.3984375 7.5625 C-10.39336182 6.35787109 -10.39336182 6.35787109 -10.38818359 5.12890625 C-9.33673761 -0.63751447 -5.07490331 -0.54373964 0 0 Z " fill="#414141" transform="translate(278,169)"/>
<path d="M0 0 C2.16252919 1.58296263 2.90093898 2.47805915 3.40405273 5.12890625 C3.43591402 7.75364415 3.45783403 10.37506197 3.4375 13 C3.45748047 13.91523438 3.47746094 14.83046875 3.49804688 15.7734375 C3.49740234 16.65257812 3.49675781 17.53171875 3.49609375 18.4375 C3.49794678 19.24058594 3.4997998 20.04367188 3.50170898 20.87109375 C3 23 3 23 1.19555664 24.796875 C-2.09742712 26.60137005 -4.44311613 25.85628686 -8 25 C-10.87595556 22.12404444 -10.29066223 19.79451445 -10.32226562 15.86132812 C-10.31904297 14.93771484 -10.31582031 14.01410156 -10.3125 13.0625 C-10.32861328 12.14275391 -10.34472656 11.22300781 -10.36132812 10.27539062 C-10.36197266 9.39173828 -10.36261719 8.50808594 -10.36328125 7.59765625 C-10.36626221 6.78820557 -10.36924316 5.97875488 -10.37231445 5.14477539 C-9.36768491 -0.64254953 -5.07083759 -0.54330403 0 0 Z " fill="#3F403F" transform="translate(395,169)"/>
<path d="M0 0 C6 0 6 0 8 1 C8 11.23 8 21.46 8 32 C6 33 6 33 0 33 C0 22.11 0 11.22 0 0 Z " fill="#0E0E0E" transform="translate(26,103)"/>
<path d="M0 0 C3.63 0 7.26 0 11 0 C12.98119355 1.98119355 12.18500411 5.73445064 12.1875 8.4375 C12.19974609 9.13166016 12.21199219 9.82582031 12.22460938 10.54101562 C12.22989842 12.36220901 12.12169207 14.1828692 12 16 C10 18 10 18 8.0546875 18.1953125 C6.03645833 18.13020833 4.01822917 18.06510417 2 18 C2 21.3 2 24.6 2 28 C1.34 28 0.68 28 0 28 C0 18.76 0 9.52 0 0 Z " fill="#060606" transform="translate(243,166)"/>
<path d="M0 0 C6 0 6 0 8 1 C8.05784708 5.12494151 8.09354407 9.24977944 8.125 13.375 C8.15013672 15.1384375 8.15013672 15.1384375 8.17578125 16.9375 C8.18222656 18.05898437 8.18867187 19.18046875 8.1953125 20.3359375 C8.20578613 21.37282715 8.21625977 22.4097168 8.22705078 23.47802734 C8 26 8 26 6 28 C4.02 28 2.04 28 0 28 C0 18.76 0 9.52 0 0 Z " fill="#101010" transform="translate(26,66)"/>
<path d="M0 0 C1.70703125 1.19921875 1.70703125 1.19921875 3 3 C3.39872284 6.37585334 3.13292547 9.58824629 3 13 C-0.63 13 -4.26 13 -8 13 C-7.67 16.3 -7.34 19.6 -7 23 C-4.36 23.33 -1.72 23.66 1 24 C0.34 24.66 -0.32 25.32 -1 26 C-7.46153846 25.53846154 -7.46153846 25.53846154 -10 23 C-10.44869661 19.70756396 -10.32408242 16.38202257 -10.3125 13.0625 C-10.32861328 12.14275391 -10.34472656 11.22300781 -10.36132812 10.27539062 C-10.36197266 9.39173828 -10.36261719 8.50808594 -10.36328125 7.59765625 C-10.36626221 6.78820557 -10.36924316 5.97875488 -10.37231445 5.14477539 C-9.36768491 -0.64254953 -5.07083759 -0.54330403 0 0 Z " fill="#949595" transform="translate(316,169)"/>
<path d="M0 0 C2.31 0 4.62 0 7 0 C7 7.26 7 14.52 7 22 C4.69 22 2.38 22 0 22 C-1.58937556 20.41062444 -1.12981143 18.76100154 -1.1328125 16.5625 C-1.13410156 15.66789063 -1.13539063 14.77328125 -1.13671875 13.8515625 C-1.13091797 12.44003906 -1.13091797 12.44003906 -1.125 11 C-1.12886719 10.05898437 -1.13273437 9.11796875 -1.13671875 8.1484375 C-1.13542969 7.25382813 -1.13414062 6.35921875 -1.1328125 5.4375 C-1.13112061 4.19806641 -1.13112061 4.19806641 -1.12939453 2.93359375 C-1 1 -1 1 0 0 Z " fill="#080808" transform="translate(441,171)"/>
<path d="M0 0 C0.66 0 1.32 0 2 0 C2 1.98 2 3.96 2 6 C2.66 5.67 3.32 5.34 4 5 C7 4.8125 7 4.8125 10 5 C12 7 12 7 12.22705078 9.24658203 C12.21134033 10.61339111 12.21134033 10.61339111 12.1953125 12.0078125 C12.18564453 13.48701172 12.18564453 13.48701172 12.17578125 14.99609375 C12.15902344 16.02863281 12.14226562 17.06117188 12.125 18.125 C12.11597656 19.16527344 12.10695313 20.20554688 12.09765625 21.27734375 C12.07403747 23.85179092 12.04110149 26.42578212 12 29 C7.99681565 31.29257254 5.51356535 31.00301452 1 30 C-1 28 -1 28 -1.24291992 25.31030273 C-1.23881104 24.19598877 -1.23470215 23.0816748 -1.23046875 21.93359375 C-1.22853516 20.72638672 -1.22660156 19.51917969 -1.22460938 18.27539062 C-1.21236328 17.00888672 -1.20011719 15.74238281 -1.1875 14.4375 C-1.18685547 13.16712891 -1.18621094 11.89675781 -1.18554688 10.58789062 C-1.14010053 1.14010053 -1.14010053 1.14010053 0 0 Z M3 7 C1.77215191 8.00559794 1.77215191 8.00559794 1.88647461 10.04125977 C1.89171143 10.91580811 1.89694824 11.79035645 1.90234375 12.69140625 C1.90556641 13.63564453 1.90878906 14.57988281 1.91210938 15.55273438 C1.92048828 16.54595703 1.92886719 17.53917969 1.9375 18.5625 C1.94201172 19.55958984 1.94652344 20.55667969 1.95117188 21.58398438 C1.96299993 24.05604849 1.97948151 26.52799518 2 29 C4.64 29 7.28 29 10 29 C10 21.74 10 14.48 10 7 C7.69 7 5.38 7 3 7 Z " fill="#929493" transform="translate(285,164)"/>
<path d="M0 0 C0.33 0.99 0.66 1.98 1 3 C-0.1875 5.3125 -0.1875 5.3125 -2 8 C-2.598125 8.99 -3.19625 9.98 -3.8125 11 C-6.26802469 14.36757671 -8.764564 16.39758409 -12 19 C-12.66 19.99 -13.32 20.98 -14 22 C-14.66 22 -15.32 22 -16 22 C-16 22.66 -16 23.32 -16 24 C-16.66 24 -17.32 24 -18 24 C-18 24.66 -18 25.32 -18 26 C-19.65 25.67 -21.3 25.34 -23 25 C-22.505 23.515 -22.505 23.515 -22 22 C-21.34 22 -20.68 22 -20 22 C-19.835 21.319375 -19.67 20.63875 -19.5 19.9375 C-17.65539565 16.32514981 -15.3247366 14.53682558 -12.234375 11.9765625 C-9.07280572 9.17978967 -6.39557421 6.03065494 -3.6640625 2.8203125 C-2 1 -2 1 0 0 Z " fill="#EEF1ED" transform="translate(691,150)"/>
<path d="M0 0 C0.66 0 1.32 0 2 0 C2 9.57 2 19.14 2 29 C-7 30 -7 30 -10 28 C-10.37231445 25.78515625 -10.37231445 25.78515625 -10.36328125 23.0625 C-10.36263672 22.08539063 -10.36199219 21.10828125 -10.36132812 20.1015625 C-10.34521484 19.07804687 -10.32910156 18.05453125 -10.3125 17 C-10.31572266 15.97648438 -10.31894531 14.95296875 -10.32226562 13.8984375 C-10.26689161 6.26689161 -10.26689161 6.26689161 -8 4 C-2.66666667 3.66666667 -2.66666667 3.66666667 0 5 C0 3.35 0 1.7 0 0 Z M-8 6 C-9.58937556 7.58937556 -9.12981143 9.23899846 -9.1328125 11.4375 C-9.13410156 12.33210937 -9.13539063 13.22671875 -9.13671875 14.1484375 C-9.13285156 15.08945313 -9.12898438 16.03046875 -9.125 17 C-9.12886719 17.94101563 -9.13273437 18.88203125 -9.13671875 19.8515625 C-9.13542969 20.74617188 -9.13414062 21.64078125 -9.1328125 22.5625 C-9.13168457 23.38878906 -9.13055664 24.21507812 -9.12939453 25.06640625 C-9.21264807 27.00679039 -9.21264807 27.00679039 -8 28 C-5.69 28 -3.38 28 -1 28 C-1 20.74 -1 13.48 -1 6 C-3.31 6 -5.62 6 -8 6 Z " fill="#8D8D8D" transform="translate(449,165)"/>
<path d="M0 0 C2.375 1.125 2.375 1.125 4 3 C4.25 6.1875 4.25 6.1875 4 9 C3.34 9 2.68 9 2 9 C1.67 7.02 1.34 5.04 1 3 C-1.31 3 -3.62 3 -6 3 C-6.33 5.64 -6.66 8.28 -7 11 C-6.278125 11.2475 -5.55625 11.495 -4.8125 11.75 C-1.13602647 13.38398823 2.16101709 15.32203419 4 19 C4.57842047 26.28809789 4.57842047 26.28809789 2.375 29 C-0.65696965 30.2766188 -2.74003936 30.41616519 -6 30 C-7.875 28.9375 -7.875 28.9375 -9 27 C-9.1875 23.3125 -9.1875 23.3125 -9 20 C-8.34 20 -7.68 20 -7 20 C-6.67 22.31 -6.34 24.62 -6 27 C-3.69 27 -1.38 27 1 27 C1.65132107 22.93473978 1.65132107 22.93473978 1 19 C-1.14703396 16.7975862 -3.38451239 15.16065676 -5.93359375 13.4453125 C-8 12 -8 12 -9 10 C-9.4524237 3.77917415 -9.4524237 3.77917415 -7.875 1.0625 C-5.09808875 -0.51108304 -3.13770673 -0.38420899 0 0 Z " fill="#A0A1A1" transform="translate(378,165)"/>
<path d="M0 0 C2.375 1.125 2.375 1.125 4 3 C4.25 6.1875 4.25 6.1875 4 9 C3.34 9 2.68 9 2 9 C1.67 7.02 1.34 5.04 1 3 C-1.31 3 -3.62 3 -6 3 C-6.33 5.64 -6.66 8.28 -7 11 C-6.278125 11.2475 -5.55625 11.495 -4.8125 11.75 C-1.13602647 13.38398823 2.16101709 15.32203419 4 19 C4.57842047 26.28809789 4.57842047 26.28809789 2.375 29 C-0.65696965 30.2766188 -2.74003936 30.41616519 -6 30 C-7.875 28.9375 -7.875 28.9375 -9 27 C-9.1875 23.3125 -9.1875 23.3125 -9 20 C-8.34 20 -7.68 20 -7 20 C-6.67 22.31 -6.34 24.62 -6 27 C-3.69 27 -1.38 27 1 27 C1.65132107 22.93473978 1.65132107 22.93473978 1 19 C-1.14703396 16.7975862 -3.38451239 15.16065676 -5.93359375 13.4453125 C-8 12 -8 12 -9 10 C-9.4524237 3.77917415 -9.4524237 3.77917415 -7.875 1.0625 C-5.09808875 -0.51108304 -3.13770673 -0.38420899 0 0 Z " fill="#A6A7A7" transform="translate(470,165)"/>
<path d="M0 0 C10.125 0 10.125 0 14 1 C13.67 1.66 13.34 2.32 13 3 C12.84733388 4.73868744 12.75067404 6.48247501 12.68359375 8.2265625 C12.64169922 9.2578125 12.59980469 10.2890625 12.55664062 11.3515625 C12.49766602 12.97191406 12.49766602 12.97191406 12.4375 14.625 C12.39431641 15.71296875 12.35113281 16.8009375 12.30664062 17.921875 C12.2003547 20.6144517 12.09831943 23.30712253 12 26 C11.34 26 10.68 26 10 26 C9.67 18.41 9.34 10.82 9 3 C7.02 3 5.04 3 3 3 C2.67 10.59 2.34 18.18 2 26 C1.34 26 0.68 26 0 26 C0 17.42 0 8.84 0 0 Z " fill="#AAABAA" transform="translate(323,169)"/>
<path d="M0 0 C4.95 0 9.9 0 15 0 C15.04945048 5.90819071 15.08574364 11.81626084 15.10986328 17.72460938 C15.1199187 19.73439635 15.13356485 21.7441687 15.15087891 23.75390625 C15.17514724 26.64326588 15.18648771 29.53243202 15.1953125 32.421875 C15.20563507 33.31992859 15.21595764 34.21798218 15.22659302 35.14324951 C15.22674408 35.98381897 15.22689514 36.82438843 15.22705078 37.69042969 C15.231492 38.42767273 15.23593323 39.16491577 15.24050903 39.92449951 C15 42 15 42 13 46 C13 31.48 13 16.96 13 2 C8.71 2 4.42 2 0 2 C0 1.34 0 0.68 0 0 Z " fill="#B1B1B1" transform="translate(449,93)"/>
<path d="M0 0 C1.86866221 2.471735 1.71772744 4.0656008 1.66674805 7.14135742 C1.65708008 8.16938477 1.64741211 9.19741211 1.63745117 10.2565918 C1.61231445 11.32844727 1.58717773 12.40030273 1.5612793 13.50463867 C1.54774414 14.5880957 1.53420898 15.67155273 1.52026367 16.7878418 C1.48488573 19.46477272 1.43552118 22.14070705 1.3737793 24.81713867 C0.7137793 24.81713867 0.0537793 24.81713867 -0.6262207 24.81713867 C-0.9562207 17.22713867 -1.2862207 9.63713867 -1.6262207 1.81713867 C-3.6062207 1.81713867 -5.5862207 1.81713867 -7.6262207 1.81713867 C-7.9562207 9.07713867 -8.2862207 16.33713867 -8.6262207 23.81713867 C-9.2862207 23.81713867 -9.9462207 23.81713867 -10.6262207 23.81713867 C-10.65127686 23.16116699 -10.67633301 22.50519531 -10.70214844 21.8293457 C-10.8179533 18.86673684 -10.94074956 15.90445836 -11.0637207 12.94213867 C-11.10303711 11.90959961 -11.14235352 10.87706055 -11.18286133 9.81323242 C-11.22475586 8.82709961 -11.26665039 7.8409668 -11.30981445 6.82495117 C-11.34647217 5.91374512 -11.38312988 5.00253906 -11.42089844 4.0637207 C-11.49199135 1.78230386 -11.49199135 1.78230386 -12.6262207 -0.18286133 C-2.77193419 -2.01621696 -2.77193419 -2.01621696 0 0 Z " fill="#B6B7B7" transform="translate(503.626220703125,170.182861328125)"/>
<path d="M0 0 C0.99 0.66 1.98 1.32 3 2 C3.29296875 4.3828125 3.29296875 4.3828125 3.1875 7.125 C3.16042969 8.03507813 3.13335937 8.94515625 3.10546875 9.8828125 C3.07066406 10.58148438 3.03585937 11.28015625 3 12 C2.34 12 1.68 12 1 12 C0.67 9.03 0.34 6.06 0 3 C-3.58327753 1.99782936 -3.58327753 1.99782936 -7 3 C-7 9.6 -7 16.2 -7 23 C-4.36 23.33 -1.72 23.66 1 24 C1 21.69 1 19.38 1 17 C1.66 17 2.32 17 3 17 C3.1875 20.375 3.1875 20.375 3 24 C-0.48868651 26.32579101 -1.89718519 26.41865457 -6 26 C-8.15820312 24.765625 -8.15820312 24.765625 -10 23 C-10.51757812 20.87109375 -10.51757812 20.87109375 -10.53125 18.4375 C-10.53640625 17.55835938 -10.5415625 16.67921875 -10.546875 15.7734375 C-10.53140625 14.85820312 -10.5159375 13.94296875 -10.5 13 C-10.51546875 12.08476562 -10.5309375 11.16953125 -10.546875 10.2265625 C-10.54171875 9.34742188 -10.5365625 8.46828125 -10.53125 7.5625 C-10.52673828 6.75941406 -10.52222656 5.95632812 -10.51757812 5.12890625 C-10 3 -10 3 -8.15820312 1.234375 C-5.26651611 -0.41951296 -3.28100443 -0.34904302 0 0 Z " fill="#A0A1A1" transform="translate(432,169)"/>
<path d="M0 0 C3.63 0 7.26 0 11 0 C12.98119355 1.98119355 12.18500411 5.73445064 12.1875 8.4375 C12.19974609 9.13166016 12.21199219 9.82582031 12.22460938 10.54101562 C12.22989842 12.36220901 12.12169207 14.1828692 12 16 C10 18 10 18 8.0546875 18.1953125 C6.03645833 18.13020833 4.01822917 18.06510417 2 18 C2 21.3 2 24.6 2 28 C1.34 28 0.68 28 0 28 C0 18.76 0 9.52 0 0 Z M2 1 C2 6.28 2 11.56 2 17 C4.31 17 6.62 17 9 17 C10.35860893 15.86687244 10.35860893 15.86687244 10.1328125 12.875 C10.13023437 11.59625 10.12765625 10.3175 10.125 9 C10.12757813 7.72125 10.13015625 6.4425 10.1328125 5.125 C10.35860893 2.13312756 10.35860893 2.13312756 9 1 C6.69 1 4.38 1 2 1 Z " fill="#CACACA" transform="translate(243,166)"/>
<path d="M0 0 C2.73905337 3.15178744 3.55269393 5.64817614 4.1875 9.75 C4.34605469 10.73484375 4.50460937 11.7196875 4.66796875 12.734375 C4.77753906 13.48203125 4.88710938 14.2296875 5 15 C5.66 15 6.32 15 7 15 C7.103125 14.01 7.20625 13.02 7.3125 12 C7.90808706 7.71702837 9.38595027 4.00003629 11 0 C11.33 0 11.66 0 12 0 C11.33567661 5.58330221 10.08309718 10.84146192 8.5625 16.25 C8.34529297 17.05179688 8.12808594 17.85359375 7.90429688 18.6796875 C7.68966797 19.45054687 7.47503906 20.22140625 7.25390625 21.015625 C7.06127197 21.70946289 6.8686377 22.40330078 6.67016602 23.11816406 C6 25 6 25 4 28 C2.68 28 1.36 28 0 28 C0 27.34 0 26.68 0 26 C0.99 25.67 1.98 25.34 3 25 C3.38933397 18.35248298 2.65739586 12.80080351 0.65625 6.4453125 C0 4 0 4 0 0 Z " fill="#AEAEAE" transform="translate(530,170)"/>
<path d="M0 0 C2.76477453 2.76477453 2.52458441 5.1966753 3 9 C3.33 9.66 3.66 10.32 4 11 C3.01 11.495 3.01 11.495 2 12 C1.34786708 14.02463255 1.34786708 14.02463255 1 16 C-0.32 16 -1.64 16 -3 16 C-3.28875 16.61875 -3.5775 17.2375 -3.875 17.875 C-5 20 -5 20 -7 22 C-7.66 21.67 -8.32 21.34 -9 21 C-7.85908391 17.95755708 -6.54769231 15.07252875 -5.0625 12.1875 C-3.04512377 8.22074899 -1.49621107 4.189391 0 0 Z " fill="#F2F2F0" transform="translate(699,130)"/>
<path d="M0 0 C0.66 0 1.32 0 2 0 C3.32 6.27 4.64 12.54 6 19 C7.65 13.06 9.3 7.12 11 1 C11.33 1 11.66 1 12 1 C11.52087184 9.24430867 10.02214499 17.00044527 8 25 C7.01 25 6.02 25 5 25 C2.61864208 16.69293749 0.40871438 8.68518048 0 0 Z " fill="#B3B4B3" transform="translate(407,169)"/>
<path d="M0 0 C2.375 0.6875 2.375 0.6875 3.375 1.6875 C3.51615161 4.35808851 3.41747107 7.01182238 3.375 9.6875 C0.405 9.6875 -2.565 9.6875 -5.625 9.6875 C-5.91796875 3.6328125 -5.91796875 3.6328125 -5.625 1.6875 C-2.625 -0.3125 -2.625 -0.3125 0 0 Z " fill="#0C0C0C" transform="translate(429.625,170.3125)"/>
<path d="M0 0 C3.5 0.125 3.5 0.125 4.5 1.125 C4.64115161 3.79558851 4.54247107 6.44932238 4.5 9.125 C1.53 9.125 -1.44 9.125 -4.5 9.125 C-4.59765625 2.97265625 -4.59765625 2.97265625 -4.5 1.125 C-3.5 0.125 -3.5 0.125 0 0 Z " fill="#050505" transform="translate(312.5,170.875)"/>
<path d="M0 0 C0 8.25 0 16.5 0 25 C-0.99 25 -1.98 25 -3 25 C-3 17.08 -3 9.16 -3 1 C-1 0 -1 0 0 0 Z " fill="#6F7070" transform="translate(479,169)"/>
<path d="M0 0 C0.99 0 1.98 0 3 0 C1.67961337 3.56504389 -0.46360868 5.3111324 -3.40234375 7.62890625 C-5.95307912 9.81792365 -7.91862222 12.36766927 -10 15 C-9.67 15.66 -9.34 16.32 -9 17 C-10.65 16.67 -12.3 16.34 -14 16 C-13.67 15.01 -13.34 14.02 -13 13 C-12.34 13 -11.68 13 -11 13 C-10.7525 11.9790625 -10.7525 11.9790625 -10.5 10.9375 C-8.28218089 6.5942709 -4.73043981 4.049942 -1 1 C-0.67 0.67 -0.34 0.34 0 0 Z " fill="#DEE0DC" transform="translate(682,159)"/>
<path d="M0 0 C0.99 0.33 1.98 0.66 3 1 C2.67 8.92 2.34 16.84 2 25 C1.34 25 0.68 25 0 25 C0 16.75 0 8.5 0 0 Z " fill="#C8C9C8" transform="translate(259,170)"/>
<path d="M0 0 C0.33 0.99 0.66 1.98 1 3 C-0.21484375 4.82421875 -0.21484375 4.82421875 -1.9375 6.6875 C-2.50339844 7.31011719 -3.06929687 7.93273437 -3.65234375 8.57421875 C-4.09707031 9.04472656 -4.54179688 9.51523438 -5 10 C-5.99 9.34 -6.98 8.68 -8 8 C-7.04578192 6.85073734 -6.08647955 5.70569459 -5.125 4.5625 C-4.59132813 3.92441406 -4.05765625 3.28632813 -3.5078125 2.62890625 C-2 1 -2 1 0 0 Z " fill="#E9E9E6" transform="translate(691,150)"/>
<path d="M0 0 C0.33 0 0.66 0 1 0 C0.39891424 5.65020618 -1.07528683 10.66164461 -3 16 C-3.33 16 -3.66 16 -4 16 C-4.6319296 9.99666876 -2.37544123 5.36595205 0 0 Z " fill="#BEBEBE" transform="translate(541,170)"/>
<path d="M0 0 C0.66 0 1.32 0 2 0 C1.25 7.625 1.25 7.625 -1 11 C-2.32 11 -3.64 11 -5 11 C-5 10.34 -5 9.68 -5 9 C-4.01 8.67 -3.02 8.34 -2 8 C-1.19787372 6.12612784 -1.19787372 6.12612784 -0.8125 3.9375 C-0.65394531 3.20402344 -0.49539063 2.47054687 -0.33203125 1.71484375 C-0.22246094 1.14894531 -0.11289062 0.58304688 0 0 Z " fill="#C3C3C3" transform="translate(535,187)"/>
<path d="M0 0 C2.97 0 5.94 0 9 0 C10.47193312 2.94386623 9.84936173 5.37390036 9.5625 8.625 C9.46066406 9.81351563 9.35882813 11.00203125 9.25390625 12.2265625 C9.17011719 13.14179688 9.08632812 14.05703125 9 15 C8.67 15 8.34 15 8 15 C7.67 10.71 7.34 6.42 7 2 C4.69 1.67 2.38 1.34 0 1 C0 0.67 0 0.34 0 0 Z " fill="#818181" transform="translate(245,166)"/>
<path d="M0 0 C0.33 0 0.66 0 1 0 C1 2.97 1 5.94 1 9 C1.99 9.33 2.98 9.66 4 10 C3.34 10.66 2.68 11.32 2 12 C-0.56295176 9.33025858 -0.99337817 8.09767206 -1.25 4.3125 C-1 1 -1 1 0 0 Z " fill="#BEBEBE" transform="translate(370,167)"/>
<path d="M0 0 C0.66 0.33 1.32 0.66 2 1 C-0.97 3.97 -3.94 6.94 -7 10 C-7 7 -7 7 -4.625 4.4375 C-3.75875 3.633125 -2.8925 2.82875 -2 2 C-1.34 1.34 -0.68 0.68 0 0 Z " fill="#D8D8D8" transform="translate(715,17)"/>
</svg>
