<?xml version="1.0" encoding="UTF-8"?>
<svg version="1.1" xmlns="http://www.w3.org/2000/svg" width="867" height="288">
<path d="M0 0 C6.64691255 6.00666703 10.28871506 11.78751131 11.30859375 20.6953125 C11.71017475 29.43274146 9.18113368 35.60630754 3.6875 42.3125 C-2.26207622 48.6113176 -8.19646968 50.39740157 -16.37109375 52.43505859 C-21.85482581 53.84823706 -26.36046123 55.7778356 -31 59 C-31.93392578 59.64388672 -31.93392578 59.64388672 -32.88671875 60.30078125 C-38.69041843 64.77000769 -42.69235833 71.07707499 -45 78 C-28.48537452 82.47493078 -15.73171167 82.07419013 -0.8125 73.5625 C0.49479202 72.79518343 1.80081034 72.02569221 3.10546875 71.25390625 C14.26448196 64.68861609 24.55613709 61.18566469 37.67578125 63.46484375 C48.68381293 66.35809002 57.32120447 73.50282022 63.31640625 83.109375 C68.68333724 93.32832847 69.8086477 105.11147933 66.9375 116.3125 C63.46745064 126.07404074 56.32015165 134.57769566 47.22265625 139.50390625 C36.70482382 144.45928771 27.2446453 145.71023708 16.0625 141.9375 C9.25443537 139.30812712 3.18898992 135.83086203 -3 132 C-14.79877778 125.16818491 -25.35395048 122.1298496 -38.9453125 125.421875 C-41.3807512 126.10713152 -43.69437732 126.95875105 -46 128 C-45.61277201 134.19564777 -43.5901183 137.9983822 -40 143 C-39.278125 144.03125 -38.55625 145.0625 -37.8125 146.125 C-32.80019806 151.89150411 -25.57587394 155.03510272 -18.421875 157.2421875 C-7.58049189 160.63449125 -0.9468206 164.29040499 4.875 174.1875 C7.90221766 181.75554416 7.85042012 189.17095967 5.03515625 196.765625 C1.82450893 203.69577695 -2.88590024 209.03281266 -10 212 C-18.20541954 214.33960803 -25.34958931 214.68472552 -33.12109375 210.9921875 C-41.78468209 206.04624482 -45.30302817 199.75470497 -48.75488281 190.62939453 C-53.08374189 179.33000557 -59.65102617 171.31688957 -70.6875 166.125 C-74.11244025 164.62813755 -77.31366703 163.62435189 -81 163 C-81.64910154 164.58199631 -82.29414694 166.16565724 -82.9375 167.75 C-83.29714844 168.63171875 -83.65679688 169.5134375 -84.02734375 170.421875 C-87.32938869 179.17428328 -86.58733067 188.20533077 -84.4375 197.1875 C-82.65715985 204.86255489 -82.12509896 211.23030612 -86.125 218.25 C-90.38876569 224.28018291 -95.36192914 228.55987731 -102.55078125 230.5859375 C-110.50757535 231.93110524 -117.06528483 230.29315265 -123.765625 225.88671875 C-128.20193997 222.14066957 -131.17209209 217.48372372 -133 212 C-133.09455661 210.02265434 -133.12989394 208.04209917 -133.125 206.0625 C-133.12886719 204.50208984 -133.12886719 204.50208984 -133.1328125 202.91015625 C-133 200 -133 200 -132.5065918 198.06445312 C-129.80016565 187.03527747 -131.58175952 174.60051014 -137.21484375 164.91015625 C-142.32186383 157.43466309 -149.73198192 151.60807765 -156.75 146 C-167.22255442 137.05573701 -173.36219378 122.4027142 -175 109 C-175.92363431 91.06017977 -173.19529395 74.25860948 -161.13891602 60.15673828 C-148.47801562 46.19391721 -132.93727265 38.36910799 -114.08984375 36.75 C-106.00277687 36.56382292 -97.98770236 37.80368929 -90.25 40.125 C-80.71430997 42.69230116 -71.28707645 40.06140173 -62.8125 35.375 C-54.06039674 29.65512149 -49.63731817 22.55614457 -45.0625 13.375 C-40.44275004 4.11774206 -35.88681072 -1.33464578 -26 -5 C-16.77311658 -7.41656471 -7.5390369 -5.78865721 0 0 Z " fill="#69993E" transform="translate(776,26)"/>
<path d="M0 0 C4.29 0 8.58 0 13 0 C15.26218109 11.63178218 17.19161174 23.2885332 19 35 C19.33 23.45 19.66 11.9 20 0 C23.63 0 27.26 0 31 0 C32.1692604 9.96430324 32.03740323 19.78286615 31.87890625 29.79296875 C31.8545578 31.59328047 31.83071675 33.39359912 31.80735779 35.19392395 C31.74498633 39.89730819 31.6757907 44.60056739 31.60510254 49.30383301 C31.53399095 54.11721171 31.46943165 58.93067799 31.40429688 63.74414062 C31.27589102 73.16285671 31.14026512 82.58145358 31 92 C27.04 92 23.08 92 19 92 C17.28937032 87.7234258 16.36996496 83.9973605 15.7109375 79.51171875 C15.60278717 78.80852005 15.49463684 78.10532135 15.38320923 77.3808136 C15.0415092 75.15052412 14.70813675 72.91908295 14.375 70.6875 C14.14377937 69.16853594 13.91201426 67.64965465 13.6796875 66.13085938 C13.11348573 62.42150125 12.55474537 58.71108802 12 55 C11.97494385 56.08531006 11.9498877 57.17062012 11.92407227 58.28881836 C11.83016245 62.301316 11.72990233 66.31363382 11.62768555 70.32592773 C11.58427427 72.06514288 11.54260388 73.80440235 11.50268555 75.54370117 C11.44513232 78.03838488 11.3813958 80.5328441 11.31640625 83.02734375 C11.29133751 84.2007859 11.29133751 84.2007859 11.26576233 85.39793396 C11.11387171 90.88612829 11.11387171 90.88612829 10 92 C8.31391034 92.07205511 6.62499341 92.08386068 4.9375 92.0625 C3.55884766 92.04896484 3.55884766 92.04896484 2.15234375 92.03515625 C1.44207031 92.02355469 0.73179687 92.01195312 0 92 C-0.15499627 82.36726467 -0.30315282 72.73445397 -0.4429636 63.10148621 C-0.50811427 58.62684432 -0.57547871 54.15226024 -0.64819336 49.67773438 C-0.71849285 45.34651483 -0.78259747 41.01524108 -0.84269524 36.68386841 C-0.86647163 35.04473637 -0.89235045 33.40563322 -0.92053413 31.76657104 C-1.10178793 21.12239983 -0.82751666 10.6148616 0 0 Z " fill="#3A3A3C" transform="translate(314,66)"/>
<path d="M0 0 C17.05012179 0.02674529 17.05012179 0.02674529 21.29223633 3.51904297 C26.8638264 9.73411245 25.86199439 16.76422966 25.86645508 24.62841797 C25.87870117 25.76085937 25.89094727 26.89330078 25.90356445 28.06005859 C25.90549805 29.15382813 25.90743164 30.24759766 25.90942383 31.37451172 C25.91353271 32.37023193 25.9176416 33.36595215 25.921875 34.3918457 C25.6653156 37.3480804 24.80691833 39.46835617 23.67895508 42.19091797 C24.00141214 45.41548859 24.65473557 48.11825944 25.67895508 51.19091797 C25.93011009 55.53191585 25.94980682 59.8751189 25.97412109 64.22241211 C25.98560592 65.65089857 26.00600243 67.0793433 26.03564453 68.50756836 C26.37623682 84.93020552 26.37623682 84.93020552 21.67895508 90.19091797 C15.38642963 93.22718993 10.08953268 93.57428463 3.17895508 93.37841797 C2.26114258 93.36488281 1.34333008 93.35134766 0.39770508 93.33740234 C-1.84251295 93.30239894 -4.08145086 93.25330666 -6.32104492 93.19091797 C-6.34416682 81.21288238 -6.36195923 69.23485206 -6.37285709 57.25679874 C-6.37808626 51.69552385 -6.38518451 46.13426418 -6.39648438 40.57299805 C-6.40731207 35.21084378 -6.4133215 29.84870419 -6.41592216 24.48653984 C-6.41777663 22.43591518 -6.42139764 20.38529137 -6.42677498 18.33467293 C-6.43398385 15.47301594 -6.43503593 12.6114204 -6.43457031 9.74975586 C-6.43816559 8.89308319 -6.44176086 8.03641052 -6.44546509 7.15377808 C-6.4329121 0.07237507 -6.4329121 0.07237507 0 0 Z M6.67895508 11.19091797 C4.96811006 12.90176298 5.54880819 15.1345189 5.54614258 17.46826172 C5.54485352 18.53882813 5.54356445 19.60939453 5.54223633 20.71240234 C5.54610352 21.8396875 5.5499707 22.96697266 5.55395508 24.12841797 C5.55008789 25.25183594 5.5462207 26.37525391 5.54223633 27.53271484 C5.54352539 28.60457031 5.54481445 29.67642578 5.54614258 30.78076172 C5.54727051 31.76939209 5.54839844 32.75802246 5.54956055 33.77661133 C5.51869004 36.20264176 5.51869004 36.20264176 6.67895508 38.19091797 C8.34507413 38.23363897 10.01278393 38.23155629 11.67895508 38.19091797 C14.86683011 35.00304294 13.8775037 26.74386888 13.92895508 22.50341797 C13.95473633 21.22080078 13.98051758 19.93818359 14.00708008 18.61669922 C13.66485795 15.0437372 13.34760891 13.5650582 10.67895508 11.19091797 C9.35895508 11.19091797 8.03895508 11.19091797 6.67895508 11.19091797 Z M5.67895508 50.19091797 C5.6295688 54.42674124 5.59324245 58.66241262 5.5690918 62.8984375 C5.55902545 64.33987344 5.54537127 65.78128892 5.52807617 67.22265625 C5.50385496 69.2928573 5.49247866 71.36278873 5.48364258 73.43310547 C5.47316895 74.67946777 5.46269531 75.92583008 5.4519043 77.20996094 C5.36243015 80.30863427 5.36243015 80.30863427 7.67895508 82.19091797 C9.74494591 82.25846631 9.74494591 82.25846631 11.67895508 81.19091797 C13.45156982 77.64022227 13.93489705 74.71853917 13.94458008 70.77685547 C13.9471582 69.76880859 13.94973633 68.76076172 13.95239258 67.72216797 C13.9446582 66.68060547 13.93692383 65.63904297 13.92895508 64.56591797 C13.93668945 63.51662109 13.94442383 62.46732422 13.95239258 61.38623047 C13.94852539 59.87802734 13.94852539 59.87802734 13.94458008 58.33935547 C13.94119629 56.96529541 13.94119629 56.96529541 13.93774414 55.56347656 C13.83443916 52.92450207 13.83443916 52.92450207 11.67895508 50.19091797 C8.59529637 49.94070227 8.59529637 49.94070227 5.67895508 50.19091797 Z " fill="#3B3B3D" transform="translate(27.321044921875,64.80908203125)"/>
<path d="M0 0 C3.96 0 7.92 0 12 0 C12.33 11.88 12.66 23.76 13 36 C14.98 36 16.96 36 19 36 C19.33 24.12 19.66 12.24 20 0 C23.96 0 27.92 0 32 0 C32.02312202 11.84765173 32.04091437 23.69529814 32.05181217 35.5429678 C32.05704131 41.04370862 32.06413951 46.54443405 32.07543945 52.04516602 C32.08626725 57.3489656 32.0922766 62.65275035 32.09487724 67.95656013 C32.09673169 69.98485612 32.10035267 72.01315126 32.10573006 74.04144096 C32.11293906 76.87196514 32.113991 79.70242718 32.11352539 82.53295898 C32.11712067 83.38028091 32.12071594 84.22760284 32.12442017 85.1006012 C32.11405216 90.88594784 32.11405216 90.88594784 31 92 C27.37 92 23.74 92 20 92 C19.505 71.21 19.505 71.21 19 50 C17.02 50 15.04 50 13 50 C12.97494385 51.2367749 12.9498877 52.4735498 12.92407227 53.74780273 C12.83017747 58.31936713 12.72991371 62.89077318 12.62768555 67.4621582 C12.58426856 69.44389146 12.54259863 71.42566378 12.50268555 73.4074707 C12.44514617 76.2496317 12.38140555 79.09159483 12.31640625 81.93359375 C12.29969376 82.82525742 12.28298126 83.71692108 12.26576233 84.63560486 C12.11387171 90.88612829 12.11387171 90.88612829 11 92 C7.37 92 3.74 92 0 92 C0 61.64 0 31.28 0 0 Z " fill="#3A3A3C" transform="translate(278,66)"/>
<path d="M0 0 C4.06313954 3.12549196 6.20989528 6.29391026 6.94543457 11.40344238 C6.94861694 12.70438843 6.95179932 14.00533447 6.95507812 15.34570312 C6.9620874 16.06845932 6.96909668 16.79121552 6.97631836 17.53587341 C6.99383144 19.90973057 6.98230054 22.28238209 6.96875 24.65625 C6.97144686 26.31482165 6.97533091 27.97339175 6.98034668 29.63195801 C6.98623263 33.10196031 6.97770825 36.57154974 6.95898438 40.04150391 C6.93619499 44.48024614 6.94932297 48.91802083 6.97327423 53.3567276 C6.98775688 56.77979773 6.983115 60.20264002 6.97276306 63.62571716 C6.97010257 65.26191829 6.97334163 66.89814038 6.98268127 68.53431702 C6.99288812 70.82486433 6.9772907 73.11386426 6.95507812 75.40429688 C6.95030457 77.35571594 6.95030457 77.35571594 6.94543457 79.34655762 C6.21835808 84.39730169 4.08240751 87.56295742 0.12109375 90.72265625 C-5.47748127 93.12670229 -12.91227889 93.05399478 -18.703125 91.18359375 C-22.42555455 88.93697592 -23.94019655 85.76736652 -25.5625 81.875 C-25.95018005 78.38452148 -25.95018005 78.38452148 -25.96655273 74.49609375 C-25.97341599 73.78309113 -25.98027924 73.0700885 -25.98735046 72.33547974 C-26.00555227 69.99428011 -26.0017912 67.65375474 -25.99609375 65.3125 C-26.0006583 63.67634871 -26.00596469 62.04019934 -26.01197815 60.40405273 C-26.02089587 56.98120312 -26.01850095 53.55858701 -26.00854492 50.13574219 C-25.99704857 45.75756459 -26.01728316 41.38019275 -26.04646206 37.00212097 C-26.06483898 33.62539586 -26.06452881 30.24886341 -26.05882454 26.87210083 C-26.05867155 25.25821806 -26.06469735 23.64432205 -26.07711601 22.03048706 C-26.09205576 19.77111732 -26.08132967 17.51323074 -26.06420898 15.25390625 C-26.06404282 13.9707251 -26.06387665 12.68754395 -26.06370544 11.36547852 C-25.33961267 6.3227754 -23.1861461 3.15554618 -19.21484375 0.0234375 C-13.26763159 -2.55164405 -6.07007167 -1.91686474 0 0 Z M-12.17402649 9.95576477 C-14.21862289 12.78193424 -13.92227642 14.99531873 -13.90307617 18.45776367 C-13.90351425 19.12144455 -13.90395233 19.78512543 -13.90440369 20.46891785 C-13.90231519 22.66056839 -13.87898268 24.85145201 -13.85546875 27.04296875 C-13.84987298 28.5632536 -13.84560279 30.08354386 -13.84260559 31.60383606 C-13.83115524 35.60377965 -13.80168672 39.60339606 -13.76849365 43.60321045 C-13.73779669 47.6852984 -13.72410107 51.76743925 -13.70898438 55.84960938 C-13.67681695 63.85822301 -13.6256186 71.86657079 -13.5625 79.875 C-11.9125 80.535 -10.2625 81.195 -8.5625 81.875 C-6.95227471 80.76918597 -6.95227471 80.76918597 -5.5625 78.875 C-5.11868657 75.92768772 -5.11868657 75.92768772 -5.20605469 72.5234375 C-5.20305359 71.21197754 -5.20005249 69.90051758 -5.19696045 68.54931641 C-5.2089669 67.11620697 -5.22144992 65.68310145 -5.234375 64.25 C-5.23743311 62.78174025 -5.23930884 61.31347759 -5.24005127 59.84521484 C-5.24465376 56.76844169 -5.25907677 53.69193035 -5.28125 50.61523438 C-5.3095323 46.67076874 -5.32046168 42.7265093 -5.3249321 38.7819519 C-5.3290887 35.75022315 -5.3389082 32.71853608 -5.35080719 29.68682861 C-5.35650566 28.23236423 -5.36126576 26.77789586 -5.36507416 25.32342529 C-5.37194758 23.29111331 -5.38647911 21.25883157 -5.40136719 19.2265625 C-5.40819519 18.06979004 -5.41502319 16.91301758 -5.42205811 15.72119141 C-5.4382849 12.79916408 -5.4382849 12.79916408 -6.5625 9.875 C-8.95357357 8.75916567 -9.93797338 8.45616334 -12.17402649 9.95576477 Z " fill="#3B3B3D" transform="translate(441.5625,66.125)"/>
<path d="M0 0 C4.48770241 3.68221736 6.18983533 7.75185537 6.81298828 13.40844727 C6.96685807 17.62135975 6.99449193 21.81642554 6.96875 26.03125 C6.97144921 27.59249106 6.97533519 29.15373047 6.98034668 30.71496582 C6.98622165 33.9763195 6.97774413 37.23723294 6.95898438 40.49853516 C6.93619545 44.66127827 6.9493294 48.82298955 6.97327423 52.98569489 C6.98778689 56.20639705 6.98310138 59.42685798 6.97276306 62.64756775 C6.97011083 64.18163681 6.97331215 65.71572838 6.98268127 67.24977112 C7.05385597 82.17607688 7.05385597 82.17607688 2.4375 89 C-2.28570985 93.02229506 -7.29702895 92.48819599 -13.234375 92.3515625 C-17.69114856 91.88077656 -19.41444917 91.14805083 -22.5625 88 C-25.64965712 83.83928927 -25.94130883 80.75736001 -25.95068359 75.62695312 C-25.95594055 74.90273666 -25.96119751 74.1785202 -25.96661377 73.43235779 C-25.97977233 71.04843307 -25.9710908 68.66518101 -25.9609375 66.28125 C-25.96295944 64.6188545 -25.96587187 62.95645986 -25.96963501 61.29406738 C-25.97405273 57.81396012 -25.96764518 54.33408423 -25.95361328 50.85400391 C-25.9365216 46.39846631 -25.94636575 41.9434709 -25.96433067 37.48795319 C-25.97518349 34.05637545 -25.97171532 30.62492576 -25.9639473 27.19334412 C-25.96194943 25.55073482 -25.96439005 23.9081138 -25.97138596 22.26551819 C-25.97902527 19.96771557 -25.96736246 17.67078475 -25.95068359 15.37304688 C-25.94829681 14.06686401 -25.94591003 12.76068115 -25.94345093 11.41491699 C-25.40114565 6.5535887 -23.30737014 3.12072511 -19.5625 0 C-13.40561585 -2.05229472 -6.20296159 -1.7411822 0 0 Z M-9.5625 9 C-12.68035113 9.64644661 -12.68035113 9.64644661 -13.5625 12 C-13.65432083 14.1547893 -13.68000462 16.31249718 -13.67602539 18.46923828 C-13.67617142 19.13277313 -13.67631744 19.79630798 -13.6764679 20.47994995 C-13.67577031 22.67677053 -13.66798514 24.8735067 -13.66015625 27.0703125 C-13.65829152 28.59203037 -13.65686788 30.11374884 -13.65586853 31.63546753 C-13.65204767 35.64351047 -13.64222104 39.65151726 -13.63116455 43.6595459 C-13.62094118 47.74828604 -13.61636892 51.83703201 -13.61132812 55.92578125 C-13.6005984 63.95053744 -13.58352713 71.97526422 -13.5625 80 C-11.9125 80.66 -10.2625 81.32 -8.5625 82 C-5.43344782 78.59954465 -5.18015808 76.19840952 -5.15844727 71.64257812 C-5.14576309 70.35444214 -5.13307892 69.06630615 -5.12001038 67.73913574 C-5.12206174 66.33650553 -5.12504969 64.93387641 -5.12890625 63.53125 C-5.12434405 62.08923089 -5.11903836 60.64721397 -5.11302185 59.2052002 C-5.10409416 56.18570105 -5.10651021 53.16646645 -5.11645508 50.14697266 C-5.12795186 46.27967768 -5.10772199 42.41329484 -5.07853794 38.54611969 C-5.0601834 35.56921604 -5.06046668 32.59253136 -5.06617546 29.61558533 C-5.06632873 28.18984191 -5.06027957 26.7640837 -5.04788399 25.33839417 C-5.03299084 23.34478772 -5.0462724 21.35103108 -5.06079102 19.35742188 C-5.06095718 18.22365112 -5.06112335 17.08988037 -5.06129456 15.92175293 C-5.66585022 12.39752487 -6.8337001 11.22150035 -9.5625 9 Z " fill="#3A3A3C" transform="translate(375.5625,66)"/>
<path d="M0 0 C3.75022469 2.76332346 5.53245286 5.19258592 6.375 9.75 C6.44331987 12.1657906 6.45987642 14.58334713 6.4375 17 C6.42847656 18.26328125 6.41945313 19.5265625 6.41015625 20.828125 C6.39855469 21.79234375 6.38695312 22.7565625 6.375 23.75 C2.415 23.75 -1.545 23.75 -5.625 23.75 C-5.78776042 20.98307292 -5.95052083 18.21614583 -6.11328125 15.44921875 C-6.67618437 12.48001219 -7.16563367 11.4616255 -9.625 9.75 C-10.615 9.75 -11.605 9.75 -12.625 9.75 C-12.625 32.85 -12.625 55.95 -12.625 79.75 C-10.645 80.08 -8.665 80.41 -6.625 80.75 C-6.295 70.19 -5.965 59.63 -5.625 48.75 C-7.275 48.42 -8.925 48.09 -10.625 47.75 C-10.625 44.45 -10.625 41.15 -10.625 37.75 C-5.015 37.75 0.595 37.75 6.375 37.75 C6.44940677 43.74565954 6.50372362 49.74104758 6.53979492 55.73706055 C6.55483947 57.77486862 6.57528012 59.81264454 6.60131836 61.8503418 C6.63789247 64.78702756 6.65476999 67.72328351 6.66796875 70.66015625 C6.68345261 71.56459976 6.69893646 72.46904327 6.71488953 73.40089417 C6.71666094 80.12687082 5.86036154 85.13029459 1.0625 90.1875 C-4.11854315 93.20216239 -10.90241308 92.42204757 -16.625 91.75 C-20.16343893 90.54033258 -22.01571517 88.57116259 -24.24526978 85.56628418 C-25.99833126 81.98796196 -26.00591044 79.3572418 -26.01318359 75.37695312 C-26.01844055 74.65273666 -26.02369751 73.9285202 -26.02911377 73.18235779 C-26.04227233 70.79843307 -26.0335908 68.41518101 -26.0234375 66.03125 C-26.02545944 64.3688545 -26.02837187 62.70645986 -26.03213501 61.04406738 C-26.03655273 57.56396012 -26.03014518 54.08408423 -26.01611328 50.60400391 C-25.9990216 46.14846631 -26.00886575 41.6934709 -26.02683067 37.23795319 C-26.03768349 33.80637545 -26.03421532 30.37492576 -26.0264473 26.94334412 C-26.02444943 25.30073482 -26.02689005 23.6581138 -26.03388596 22.01551819 C-26.04152527 19.71771557 -26.02986246 17.42078475 -26.01318359 15.12304688 C-26.01079681 13.81686401 -26.00841003 12.51068115 -26.00595093 11.16491699 C-25.46364565 6.3035887 -23.36987014 2.87072511 -19.625 -0.25 C-13.44020243 -2.31159919 -6.1264023 -2.11255252 0 0 Z " fill="#3A3A3C" transform="translate(477.625,66.25)"/>
<path d="M0 0 C3.76252893 2.77238974 5.49502453 5.19143856 6.375 9.75 C6.45559997 11.7017327 6.48262243 13.65600418 6.47265625 15.609375 C6.46943359 16.72441406 6.46621094 17.83945313 6.46289062 18.98828125 C6.45032227 20.72658203 6.45032227 20.72658203 6.4375 22.5 C6.43298828 23.67433594 6.42847656 24.84867188 6.42382812 26.05859375 C6.41205106 28.95575095 6.39411588 31.85288193 6.375 34.75 C2.415 34.75 -1.545 34.75 -5.625 34.75 C-5.66238281 33.19667969 -5.69976562 31.64335938 -5.73828125 30.04296875 C-5.80393224 28.007788 -5.87037988 25.97263283 -5.9375 23.9375 C-5.96005859 22.91333984 -5.98261719 21.88917969 -6.00585938 20.83398438 C-6.0590332 19.35961914 -6.0590332 19.35961914 -6.11328125 17.85546875 C-6.13946533 16.94949951 -6.16564941 16.04353027 -6.19262695 15.11010742 C-6.69413046 12.3726515 -7.4897772 11.46762393 -9.625 9.75 C-11.24102477 10.84050635 -11.24102477 10.84050635 -12.625 12.75 C-13.0623456 15.80049934 -13.0623456 15.80049934 -12.96557617 19.33276367 C-12.96601425 19.99644455 -12.96645233 20.66012543 -12.96690369 21.34391785 C-12.96481519 23.53556839 -12.94148268 25.72645201 -12.91796875 27.91796875 C-12.91237298 29.4382536 -12.90810279 30.95854386 -12.90510559 32.47883606 C-12.89365524 36.47877965 -12.86418672 40.47839606 -12.83099365 44.47821045 C-12.80029669 48.5602984 -12.78660107 52.64243925 -12.77148438 56.72460938 C-12.73931695 64.73322301 -12.6881186 72.74157079 -12.625 80.75 C-10.15233235 80.40555119 -10.15233235 80.40555119 -7.625 79.75 C-6.39439579 77.28879159 -6.4192277 75.49223134 -6.30859375 72.7421875 C-6.26669922 71.75605469 -6.22480469 70.76992187 -6.18164062 69.75390625 C-6.14232422 68.72136719 -6.10300781 67.68882812 -6.0625 66.625 C-6.01931641 65.58472656 -5.97613281 64.54445313 -5.93164062 63.47265625 C-5.82537232 60.8986017 -5.72466473 58.32431869 -5.625 55.75 C-1.665 55.75 2.295 55.75 6.375 55.75 C6.45620685 59.77124276 6.5156066 63.79083232 6.5625 67.8125 C6.58763672 68.94623047 6.61277344 70.07996094 6.63867188 71.24804688 C6.70530136 78.86601836 6.51636644 84.43882997 1.0625 90.1875 C-4.11854315 93.20216239 -10.90241308 92.42204757 -16.625 91.75 C-20.16343893 90.54033258 -22.01571517 88.57116259 -24.24526978 85.56628418 C-25.99833126 81.98796196 -26.00591044 79.3572418 -26.01318359 75.37695312 C-26.01844055 74.65273666 -26.02369751 73.9285202 -26.02911377 73.18235779 C-26.04227233 70.79843307 -26.0335908 68.41518101 -26.0234375 66.03125 C-26.02545944 64.3688545 -26.02837187 62.70645986 -26.03213501 61.04406738 C-26.03655273 57.56396012 -26.03014518 54.08408423 -26.01611328 50.60400391 C-25.9990216 46.14846631 -26.00886575 41.6934709 -26.02683067 37.23795319 C-26.03768349 33.80637545 -26.03421532 30.37492576 -26.0264473 26.94334412 C-26.02444943 25.30073482 -26.02689005 23.6581138 -26.03388596 22.01551819 C-26.04152527 19.71771557 -26.02986246 17.42078475 -26.01318359 15.12304688 C-26.01079681 13.81686401 -26.00841003 12.51068115 -26.00595093 11.16491699 C-25.46364565 6.3035887 -23.36987014 2.87072511 -19.625 -0.25 C-13.44020243 -2.31159919 -6.1264023 -2.11255252 0 0 Z " fill="#3C3C3E" transform="translate(267.625,66.25)"/>
<path d="M0 0 C3.78141393 2.786305 5.44325143 5.18869836 6.375 9.75 C6.44426968 12.50970408 6.4691736 15.24196042 6.4375 18 C6.43298828 18.74507812 6.42847656 19.49015625 6.42382812 20.2578125 C6.41209246 22.0885764 6.3941585 23.91929873 6.375 25.75 C2.415 25.75 -1.545 25.75 -5.625 25.75 C-5.955 20.47 -6.285 15.19 -6.625 9.75 C-8.605 9.75 -10.585 9.75 -12.625 9.75 C-13.52147318 25.41337854 -8.00682401 35.29686429 -0.18359375 48.39453125 C4.71860836 56.68441957 6.55184682 63.02213655 6.625 72.6875 C6.645625 73.36490234 6.66625 74.04230469 6.6875 74.74023438 C6.73522527 80.96241588 5.39712411 85.61857189 1.0625 90.1875 C-4.10997982 93.19717969 -10.91207292 92.44042484 -16.625 91.75 C-20.03101557 90.43905156 -22.05751584 88.31748416 -24.625 85.75 C-25.53381016 83.0067198 -25.74445003 80.51740395 -25.72265625 77.640625 C-25.71943359 76.88652344 -25.71621094 76.13242188 -25.71289062 75.35546875 C-25.70451172 74.57816406 -25.69613281 73.80085938 -25.6875 73 C-25.68298828 72.20722656 -25.67847656 71.41445312 -25.67382812 70.59765625 C-25.66208565 68.64840492 -25.64415146 66.69919262 -25.625 64.75 C-21.665 64.75 -17.705 64.75 -13.625 64.75 C-13.295 70.03 -12.965 75.31 -12.625 80.75 C-10.15 80.255 -10.15 80.255 -7.625 79.75 C-4.50975554 65.73139994 -11.91786226 54.61421909 -19.00195312 43.19335938 C-24.09712836 34.74793194 -26.13368256 27.36280257 -26 17.5 C-26.01160156 16.62859375 -26.02320313 15.7571875 -26.03515625 14.859375 C-26.00807639 8.93791307 -25.03962621 5.56706391 -21.125 1 C-15.93903407 -3.32163827 -5.90896181 -2.03757304 0 0 Z " fill="#3A3A3C" transform="translate(560.625,66.25)"/>
<path d="M0 0 C1.12591553 0.00523682 2.25183105 0.01047363 3.41186523 0.01586914 C4.62680664 0.0190918 5.84174805 0.02231445 7.09350586 0.02563477 C8.37290039 0.03401367 9.65229492 0.04239258 10.97045898 0.05102539 C12.2537207 0.05553711 13.53698242 0.06004883 14.85913086 0.06469727 C18.04211921 0.07652994 21.22501661 0.09301471 24.40795898 0.11352539 C24.40795898 3.74352539 24.40795898 7.37352539 24.40795898 11.11352539 C19.45795898 11.44352539 14.50795898 11.77352539 9.40795898 12.11352539 C9.40795898 20.69352539 9.40795898 29.27352539 9.40795898 38.11352539 C13.03795898 38.44352539 16.66795898 38.77352539 20.40795898 39.11352539 C20.40795898 42.41352539 20.40795898 45.71352539 20.40795898 49.11352539 C14.96295898 49.60852539 14.96295898 49.60852539 9.40795898 50.11352539 C9.73795898 60.34352539 10.06795898 70.57352539 10.40795898 81.11352539 C17.33795898 81.60852539 17.33795898 81.60852539 24.40795898 82.11352539 C24.40795898 85.74352539 24.40795898 89.37352539 24.40795898 93.11352539 C19.9288057 93.14238878 15.44967607 93.16027726 10.97045898 93.17602539 C9.69106445 93.1844043 8.41166992 93.1927832 7.09350586 93.20141602 C5.87856445 93.20463867 4.66362305 93.20786133 3.41186523 93.21118164 C2.28594971 93.21641846 1.16003418 93.22165527 0 93.22705078 C-2.59204102 93.11352539 -2.59204102 93.11352539 -3.59204102 92.11352539 C-3.69257609 89.28849209 -3.72819818 86.48787254 -3.72143555 83.66235352 C-3.72318787 82.77623886 -3.72494019 81.89012421 -3.72674561 80.97715759 C-3.73116541 78.03301057 -3.72822568 75.08892308 -3.72485352 72.14477539 C-3.72552652 70.10835763 -3.72649651 68.07193995 -3.72775269 66.03552246 C-3.72922983 61.76154823 -3.72707456 57.48759486 -3.72241211 53.21362305 C-3.71671482 47.72194 -3.71999373 42.23030582 -3.72598457 36.73862457 C-3.72958973 32.53175485 -3.72845181 28.3248968 -3.72585678 24.11802673 C-3.72518739 22.09252415 -3.72601637 20.06702053 -3.72833633 18.04151917 C-3.73086212 15.21588309 -3.72702332 12.39032732 -3.72143555 9.56469727 C-3.72345978 8.71894638 -3.72548401 7.8731955 -3.72756958 7.0018158 C-3.70237862 0.16215561 -3.70237862 0.16215561 0 0 Z " fill="#3C3C3E" transform="translate(214.592041015625,64.886474609375)"/>
<path d="M0 0 C1.1653125 -0.00128906 2.330625 -0.00257812 3.53125 -0.00390625 C4.7584375 -0.00003906 5.985625 0.00382812 7.25 0.0078125 C9.09078125 0.00201172 9.09078125 0.00201172 10.96875 -0.00390625 C12.71671875 -0.00197266 12.71671875 -0.00197266 14.5 0 C15.57765625 0.00112793 16.6553125 0.00225586 17.765625 0.00341797 C20.25 0.1328125 20.25 0.1328125 21.25 1.1328125 C21.39257189 4.46899481 21.29228157 7.79256856 21.25 11.1328125 C16.63 11.4628125 12.01 11.7928125 7.25 12.1328125 C6.23026871 15.19200638 6.13466398 17.25699275 6.15234375 20.45703125 C6.15556641 21.48505859 6.15878906 22.51308594 6.16210938 23.57226562 C6.17048828 24.64412109 6.17886719 25.71597656 6.1875 26.8203125 C6.19201172 27.90376953 6.19652344 28.98722656 6.20117188 30.10351562 C6.21296243 32.77997144 6.23089792 35.45639889 6.25 38.1328125 C9.88 38.4628125 13.51 38.7928125 17.25 39.1328125 C17.25 42.4328125 17.25 45.7328125 17.25 49.1328125 C11.805 49.6278125 11.805 49.6278125 6.25 50.1328125 C6.22534378 54.38695873 6.20716101 58.64106748 6.19506836 62.89526367 C6.19002899 64.34351323 6.18319747 65.79175767 6.17456055 67.23999023 C6.16247753 69.31755838 6.15676789 71.39505947 6.15234375 73.47265625 C6.14710693 74.72425537 6.14187012 75.97585449 6.13647461 77.26538086 C5.92112965 80.03013544 5.92112965 80.03013544 7.25 81.1328125 C9.59987262 81.36809023 11.95556039 81.54667667 14.3125 81.6953125 C16.24802734 81.82099609 16.24802734 81.82099609 18.22265625 81.94921875 C19.22167969 82.00980469 20.22070312 82.07039063 21.25 82.1328125 C21.27688151 83.77855816 21.29634123 85.42442663 21.3125 87.0703125 C21.32410156 87.98683594 21.33570312 88.90335937 21.34765625 89.84765625 C21.25 92.1328125 21.25 92.1328125 20.25 93.1328125 C18.25035018 93.22039253 16.2476389 93.23977826 14.24609375 93.23046875 C12.42368164 93.22563477 12.42368164 93.22563477 10.56445312 93.22070312 C9.28505859 93.21232422 8.00566406 93.20394531 6.6875 93.1953125 C5.40423828 93.19080078 4.12097656 93.18628906 2.79882812 93.18164062 C-0.38416022 93.16980795 -3.56705762 93.15332318 -6.75 93.1328125 C-8.052251 35.64080929 -8.052251 35.64080929 -7.375 14.5703125 C-7.34286911 13.51109589 -7.34286911 13.51109589 -7.31008911 12.43048096 C-6.91400966 0.00723655 -6.91400966 0.00723655 0 0 Z " fill="#3C3C3E" transform="translate(63.75,64.8671875)"/>
<path d="M0 0 C1.1653125 -0.00128906 2.330625 -0.00257812 3.53125 -0.00390625 C4.7584375 -0.00003906 5.985625 0.00382812 7.25 0.0078125 C9.09078125 0.00201172 9.09078125 0.00201172 10.96875 -0.00390625 C12.71671875 -0.00197266 12.71671875 -0.00197266 14.5 0 C15.57765625 0.00112793 16.6553125 0.00225586 17.765625 0.00341797 C20.25 0.1328125 20.25 0.1328125 21.25 1.1328125 C21.39257189 4.46899481 21.29228157 7.79256856 21.25 11.1328125 C16.3 11.1328125 11.35 11.1328125 6.25 11.1328125 C6.25 20.0428125 6.25 28.9528125 6.25 38.1328125 C9.88 38.4628125 13.51 38.7928125 17.25 39.1328125 C17.25 42.4328125 17.25 45.7328125 17.25 49.1328125 C11.805 49.6278125 11.805 49.6278125 6.25 50.1328125 C6.25 60.3628125 6.25 70.5928125 6.25 81.1328125 C11.2 81.4628125 16.15 81.7928125 21.25 82.1328125 C21.25 85.7628125 21.25 89.3928125 21.25 93.1328125 C16.77084672 93.16167588 12.29171709 93.17956437 7.8125 93.1953125 C6.53310547 93.20369141 5.25371094 93.21207031 3.93554688 93.22070312 C2.72060547 93.22392578 1.50566406 93.22714844 0.25390625 93.23046875 C-0.87200928 93.23570557 -1.9979248 93.24094238 -3.15795898 93.24633789 C-5.75 93.1328125 -5.75 93.1328125 -6.75 92.1328125 C-6.85053508 89.3077792 -6.88615716 86.50715965 -6.87939453 83.68164062 C-6.88114685 82.79552597 -6.88289917 81.90941132 -6.88470459 80.9964447 C-6.8891244 78.05229768 -6.88618467 75.10821019 -6.8828125 72.1640625 C-6.8834855 70.12764474 -6.8844555 68.09122706 -6.88571167 66.05480957 C-6.88718882 61.78083534 -6.88503355 57.50688197 -6.88037109 53.23291016 C-6.8746738 47.74122711 -6.87795271 42.24959293 -6.88394356 36.75791168 C-6.88754872 32.55104196 -6.88641079 28.34418391 -6.88381577 24.13731384 C-6.88314637 22.11181126 -6.88397535 20.08630764 -6.88629532 18.06080627 C-6.8888211 15.2351702 -6.8849823 12.40961443 -6.87939453 9.58398438 C-6.88141876 8.73823349 -6.88344299 7.8924826 -6.88552856 7.02110291 C-6.86059951 0.25255407 -6.6804791 0.00699213 0 0 Z " fill="#3A3A3C" transform="translate(510.75,64.8671875)"/>
<path d="M0 0 C8.91 0 17.82 0 27 0 C27 3.63 27 7.26 27 11 C22.38 11.33 17.76 11.66 13 12 C12.67 20.58 12.34 29.16 12 38 C15.3 38 18.6 38 22 38 C23 39 23 39 23.09765625 41.28515625 C23.06510417 43.85677083 23.03255208 46.42838542 23 49 C17.555 49.495 17.555 49.495 12 50 C12.33 60.23 12.66 70.46 13 81 C19.93 81.495 19.93 81.495 27 82 C27 85.63 27 89.26 27 93 C18.09 93 9.18 93 0 93 C0 62.31 0 31.62 0 0 Z " fill="#3A3A3C" transform="translate(121,65)"/>
<path d="M0 0 C1.39120471 0.00015906 2.78241534 0.00585033 4.17358398 0.01586914 C4.90463852 0.01728409 5.63569305 0.01869904 6.38890076 0.02015686 C8.73253406 0.02577131 11.07607313 0.03832617 13.41967773 0.05102539 C15.00496282 0.05603853 16.59024939 0.06060176 18.17553711 0.06469727 C22.06945383 0.07574542 25.96329979 0.09301967 29.85717773 0.11352539 C29.85717773 3.74352539 29.85717773 7.37352539 29.85717773 11.11352539 C27.54597982 11.30883789 25.2347819 11.50415039 22.92358398 11.69946289 C22.24166992 11.83610352 21.55975586 11.97274414 20.85717773 12.11352539 C19.34596749 15.13594588 19.67795683 18.2750537 19.65185547 21.5925293 C19.63700607 22.74876549 19.63700607 22.74876549 19.62185669 23.92835999 C19.59020944 26.48223779 19.56547156 29.03613421 19.54077148 31.59008789 C19.52020474 33.35843394 19.49920834 35.12677504 19.47779846 36.89511108 C19.42254892 41.55411782 19.37315237 46.21316914 19.32495117 50.87225342 C19.27475717 55.62459287 19.21906015 60.37686741 19.16381836 65.12915039 C19.05620154 74.45721998 18.9547644 83.78534586 18.85717773 93.11352539 C14.89717773 93.11352539 10.93717773 93.11352539 6.85717773 93.11352539 C6.85717773 66.05352539 6.85717773 38.99352539 6.85717773 11.11352539 C3.22717773 11.11352539 -0.40282227 11.11352539 -4.14282227 11.11352539 C-4.24047852 3.39868164 -4.24047852 3.39868164 -4.14282227 1.11352539 C-3.14282227 0.11352539 -3.14282227 0.11352539 0 0 Z " fill="#3A393C" transform="translate(177.142822265625,64.886474609375)"/>
<path d="M0 0 C3.96 0 7.92 0 12 0 C12.33 26.4 12.66 52.8 13 80 C19.93 80.495 19.93 80.495 27 81 C27 84.63 27 88.26 27 92 C18.09 92 9.18 92 0 92 C-0.14446699 84.58832764 -0.28751814 77.17665245 -0.42724609 69.76489258 C-0.47496623 67.25446092 -0.52344276 64.74404349 -0.57275391 62.23364258 C-0.82116115 49.56233817 -1.04542196 36.89278746 -1.0625 24.21875 C-1.06479614 23.30411484 -1.06709229 22.38947968 -1.06945801 21.4471283 C-1.06104283 14.25219233 -0.64450599 7.1701291 0 0 Z " fill="#3C3C3E" transform="translate(89,66)"/>
<path d="M0 0 C3.96 0 7.92 0 12 0 C12 26.73 12 53.46 12 81 C16.95 81 21.9 81 27 81 C27 84.63 27 88.26 27 92 C18.09 92 9.18 92 0 92 C0 61.64 0 31.28 0 0 Z " fill="#3A3A3C" transform="translate(386,66)"/>
<path d="M0 0 C3.96 0 7.92 0 12 0 C12 30.36 12 60.72 12 92 C8.04 92 4.08 92 0 92 C0 61.64 0 31.28 0 0 Z " fill="#3B3B3D" transform="translate(488,66)"/>
<path d="M0 0 C0.33 0 0.66 0 1 0 C1 54.78 1 109.56 1 166 C0.34 166 -0.32 166 -1 166 C-1.02332692 144.50394484 -1.04097815 123.00789175 -1.05181217 101.51182652 C-1.05697557 91.53156169 -1.0640191 81.55130471 -1.07543945 71.57104492 C-1.08538496 62.8755386 -1.09185311 54.18003795 -1.09408849 45.4845261 C-1.09539583 40.87736269 -1.09848312 36.27021554 -1.10573006 31.66305733 C-1.11248817 27.33181408 -1.11461739 23.00059388 -1.11310768 18.66934586 C-1.1133841 17.07494545 -1.11539047 15.48054432 -1.11920547 13.88614845 C-1.12413947 11.71883429 -1.1229994 9.55160857 -1.12025452 7.3842926 C-1.12117631 6.16844766 -1.1220981 4.95260271 -1.12304783 3.69991398 C-1 1 -1 1 0 0 Z " fill="#606362" transform="translate(582,64)"/>
<path d="M0 0 C0.99 0.33 1.98 0.66 3 1 C2.4375 2.875 2.4375 2.875 1 5 C-2.625 6.25 -2.625 6.25 -6 7 C-5.67 9.31 -5.34 11.62 -5 14 C-5.99 14 -6.98 14 -8 14 C-9.33981486 14.3062434 -10.67511887 14.63451555 -12 15 C-11.67 15.99 -11.34 16.98 -11 18 C-10.34 18.33 -9.68 18.66 -9 19 C-9.639375 19.12375 -10.27875 19.2475 -10.9375 19.375 C-11.618125 19.58125 -12.29875 19.7875 -13 20 C-13.33 20.66 -13.66 21.32 -14 22 C-14.639375 22.2475 -15.27875 22.495 -15.9375 22.75 C-18.25633018 23.88614757 -18.25633018 23.88614757 -19.1875 26.6875 C-20.07321771 30.01677878 -20.07321771 30.01677878 -20.4375 33.5625 C-21 37 -21 37 -22.515625 39.0390625 C-24.77294489 43.54182164 -24.39483402 47.84940533 -24.3125 52.8125 C-24.31572266 53.77220703 -24.31894531 54.73191406 -24.32226562 55.72070312 C-24.43745961 65.63393275 -24.43745961 65.63393275 -20 74 C-19.875 76.625 -19.875 76.625 -20 79 C-19.34 79 -18.68 79 -18 79 C-15.63496961 81.99106784 -14.08446819 84.02861582 -13.75 87.875 C-13.8325 88.57625 -13.915 89.2775 -14 90 C-13.34 90 -12.68 90 -12 90 C-12.33 90.99 -12.66 91.98 -13 93 C-24.96562749 78.64947081 -28.10270156 62.25583696 -27 44 C-24.86126476 26.39958248 -15.6828554 13.60220841 -2.84765625 2.09765625 C-1.90792969 1.40542969 -0.96820312 0.71320313 0 0 Z " fill="#8CB553" transform="translate(628,74)"/>
<path d="M0 0 C1.67542976 0.28604898 3.34385343 0.61781233 5 1 C4.38899695 4.91041952 3.16799899 8.37580256 1.71875 12.03515625 C-1.39200555 20.53901517 -0.51071424 29.52544051 1.5625 38.1875 C3.34284015 45.86255489 3.87490104 52.23030612 -0.125 59.25 C-5.03757211 66.19778056 -10.64674277 70.19265889 -19 72 C-22.4375 72.3125 -22.4375 72.3125 -25 72 C-25.66 71.34 -26.32 70.68 -27 70 C-23.7 70 -20.4 70 -17 70 C-17.495 67.525 -17.495 67.525 -18 65 C-12.25 63 -12.25 63 -10 63 C-9.01 61.02 -8.02 59.04 -7 57 C-5.35 57 -3.7 57 -2 57 C-0.16507326 51.60990271 0.52618714 46.70240021 0 41 C-0.495 40.505 -0.495 40.505 -1 40 C-3.57425269 28.59436945 -3.61354398 19.15218446 -0.55859375 7.8828125 C-0.00999327 5.05157366 -0.15710045 3.68479116 -1 1 C-0.67 0.67 -0.34 0.34 0 0 Z " fill="#5E8043" transform="translate(690,185)"/>
<path d="M0 0 C3.42375 -0.04125 6.8475 -0.0825 10.375 -0.125 C11.99220947 -0.15231201 11.99220947 -0.15231201 13.64208984 -0.18017578 C14.48980957 -0.1851709 15.3375293 -0.19016602 16.2109375 -0.1953125 C17.51490479 -0.21102295 17.51490479 -0.21102295 18.84521484 -0.22705078 C21 0 21 0 23 2 C23.22705078 4.52197266 23.22705078 4.52197266 23.1953125 7.6640625 C23.18886719 8.78554687 23.18242187 9.90703125 23.17578125 11.0625 C23.15902344 12.238125 23.14226562 13.41375 23.125 14.625 C23.11597656 15.80835938 23.10695313 16.99171875 23.09765625 18.2109375 C23.07402812 21.14082523 23.04108514 24.0703134 23 27 C22.34 27 21.68 27 21 27 C20.505 14.625 20.505 14.625 20 2 C18.02 2.33 16.04 2.66 14 3 C13.67 10.92 13.34 18.84 13 27 C12.01 27 11.02 27 10 27 C9.67 19.08 9.34 11.16 9 3 C7.35 3 5.7 3 4 3 C3.67 10.92 3.34 18.84 3 27 C2.01 27 1.02 27 0 27 C0 18.09 0 9.18 0 0 Z " fill="#9AC063" transform="translate(338,182)"/>
<path d="M0 0 C4.68115364 7.02173047 3.78096339 16.76252989 2.57421875 24.85546875 C0.02457965 34.69426013 -6.66053221 43.30015506 -15 49 C-24.76531446 54.2878285 -35.17473166 57.16252614 -46.1875 54 C-47.115625 53.67 -48.04375 53.34 -49 53 C-49 52.67 -49 52.34 -49 52 C-47.9378125 52.09539062 -46.875625 52.19078125 -45.78125 52.2890625 C-35.19866792 53.35725662 -35.19866792 53.35725662 -25 51 C-23.56362302 49.04836882 -23.56362302 49.04836882 -23 47 C-22.01 46.505 -22.01 46.505 -21 46 C-19.515 46.495 -19.515 46.495 -18 47 C-13.71929002 43.22406041 -13.71929002 43.22406041 -12 38 C-10.68 38 -9.36 38 -8 38 C-8.2475 37.2575 -8.495 36.515 -8.75 35.75 C-8.8325 34.8425 -8.915 33.935 -9 33 C-7.0625 30.6875 -7.0625 30.6875 -5 29 C-3.68 29.66 -2.36 30.32 -1 31 C-1 29.02 -1 27.04 -1 25 C-0.34 25 0.32 25 1 25 C1.05386629 22.87527424 1.09273071 20.75016348 1.125 18.625 C1.14820313 17.44164062 1.17140625 16.25828125 1.1953125 15.0390625 C1.32866229 11.88846183 1.32866229 11.88846183 -1 10 C-0.69208308 8.328451 -0.35613097 6.66194453 0 5 C-0.2981424 3.65835921 -0.62243192 2.32148827 -1 1 C-0.67 0.67 -0.34 0.34 0 0 Z " fill="#628A40" transform="translate(841,115)"/>
<path d="M0 0 C0.33 0 0.66 0 1 0 C1 2.64 1 5.28 1 8 C1.62648437 7.91621094 2.25296875 7.83242187 2.8984375 7.74609375 C3.71570313 7.64425781 4.53296875 7.54242188 5.375 7.4375 C6.18710938 7.33308594 6.99921875 7.22867188 7.8359375 7.12109375 C10 7 10 7 12 8 C12 35.06 12 62.12 12 90 C15.3 90 18.6 90 22 90 C22 62.94 22 35.88 22 8 C25.96 8 29.92 8 34 8 C34 8.33 34 8.66 34 9 C33.04287109 9.07347656 33.04287109 9.07347656 32.06640625 9.1484375 C30.82697266 9.26058594 30.82697266 9.26058594 29.5625 9.375 C28.73878906 9.44460937 27.91507813 9.51421875 27.06640625 9.5859375 C26.38449219 9.72257812 25.70257813 9.85921875 25 10 C23.48878976 13.02242048 23.82077909 16.16152831 23.79467773 19.47900391 C23.77982834 20.6352401 23.77982834 20.6352401 23.76467896 21.81483459 C23.7330317 24.3687124 23.70829383 26.92260882 23.68359375 29.4765625 C23.663027 31.24490855 23.64203061 33.01324965 23.62062073 34.78158569 C23.56537119 39.44059243 23.51597464 44.09964375 23.46777344 48.75872803 C23.41757944 53.51106747 23.36188242 58.26334202 23.30664062 63.015625 C23.19902381 72.34369459 23.09758667 81.67182047 23 91 C19.04 91 15.08 91 11 91 C11 63.94 11 36.88 11 9 C7.37 9 3.74 9 0 9 C0 6.03 0 3.06 0 0 Z " fill="#545456" transform="translate(173,67)"/>
<path d="M0 0 C3.96 0 7.92 0 12 0 C14.98648563 2.98648563 14.29249394 5.76547493 14.32226562 9.84960938 C14.31904297 10.86861328 14.31582031 11.88761719 14.3125 12.9375 C14.32861328 13.95263672 14.34472656 14.96777344 14.36132812 16.01367188 C14.36197266 16.98755859 14.36261719 17.96144531 14.36328125 18.96484375 C14.36775269 20.30470337 14.36775269 20.30470337 14.37231445 21.67163086 C14 24 14 24 12.69995117 25.81469727 C10.02385698 27.68062249 7.1865961 27 4 27 C3.34 27.99 2.68 28.98 2 30 C1.34 30 0.68 30 0 30 C0 20.1 0 10.2 0 0 Z M3 3 C2.90100477 4.54955559 2.86920476 6.10353673 2.8671875 7.65625 C2.86589844 8.59597656 2.86460937 9.53570312 2.86328125 10.50390625 C2.86714844 11.49261719 2.87101563 12.48132813 2.875 13.5 C2.87113281 14.48871094 2.86726562 15.47742188 2.86328125 16.49609375 C2.86457031 17.43582031 2.86585938 18.37554687 2.8671875 19.34375 C2.86831543 20.21193359 2.86944336 21.08011719 2.87060547 21.97460938 C2.7758463 23.99604154 2.7758463 23.99604154 4 25 C7 25.16666667 7 25.16666667 10 25 C11.62200515 23.37799485 11.1299075 21.57976969 11.1328125 19.34375 C11.13410156 18.40402344 11.13539063 17.46429688 11.13671875 16.49609375 C11.13285156 15.50738281 11.12898437 14.51867187 11.125 13.5 C11.12886719 12.51128906 11.13273438 11.52257812 11.13671875 10.50390625 C11.13478516 9.09431641 11.13478516 9.09431641 11.1328125 7.65625 C11.13168457 6.78806641 11.13055664 5.91988281 11.12939453 5.02539062 C11.2241537 3.00395846 11.2241537 3.00395846 10 2 C6.19759625 1.52263947 6.19759625 1.52263947 3 3 Z " fill="#92BB5B" transform="translate(529,182)"/>
<path d="M0 0 C3.25875 -0.020625 6.5175 -0.04125 9.875 -0.0625 C10.90093262 -0.071604 11.92686523 -0.08070801 12.98388672 -0.09008789 C13.79100098 -0.09258545 14.59811523 -0.09508301 15.4296875 -0.09765625 C16.67081299 -0.10551147 16.67081299 -0.10551147 17.93701172 -0.11352539 C20 0 20 0 22 1 C22 9.58 22 18.16 22 27 C21.34 27 20.68 27 20 27 C19.505 14.625 19.505 14.625 19 2 C17.02 2.33 15.04 2.66 13 3 C12.67 10.92 12.34 18.84 12 27 C11.34 27 10.68 27 10 27 C9.67 19.08 9.34 11.16 9 3 C7.02 3 5.04 3 3 3 C2.67 10.92 2.34 18.84 2 27 C1.34 27 0.68 27 0 27 C0 18.09 0 9.18 0 0 Z " fill="#9DC964" transform="translate(504,182)"/>
<path d="M0 0 C0.99 0 1.98 0 3 0 C3 10.56 3 21.12 3 32 C-8 32 -8 32 -11 30 C-11.34057617 27.56982422 -11.34057617 27.56982422 -11.29296875 24.5546875 C-11.28330078 23.47832031 -11.27363281 22.40195313 -11.26367188 21.29296875 C-11.23853516 20.16503906 -11.21339844 19.03710938 -11.1875 17.875 C-11.17396484 16.73933594 -11.16042969 15.60367188 -11.14648438 14.43359375 C-11.11104319 11.62192613 -11.06163517 8.81119583 -11 6 C-7.78548731 4.39274365 -4.56387464 4.94251815 -1 5 C-0.67 3.35 -0.34 1.7 0 0 Z M-9 8 C-9.25035974 11.30516934 -9.18521952 14.62396041 -9.1875 17.9375 C-9.19974609 18.87013672 -9.21199219 19.80277344 -9.22460938 20.76367188 C-9.22654297 21.65505859 -9.22847656 22.54644531 -9.23046875 23.46484375 C-9.23457764 24.285896 -9.23868652 25.10694824 -9.24291992 25.95288086 C-9.1873988 28.22517224 -9.1873988 28.22517224 -7 30 C-4.5 30.33333333 -4.5 30.33333333 -2 30 C0.1873988 28.22517224 0.1873988 28.22517224 0.24291992 25.95288086 C0.23881104 25.13182861 0.23470215 24.31077637 0.23046875 23.46484375 C0.22853516 22.57345703 0.22660156 21.68207031 0.22460938 20.76367188 C0.21236328 19.83103516 0.20011719 18.89839844 0.1875 17.9375 C0.1865332 16.53274414 0.1865332 16.53274414 0.18554688 15.09960938 C0.55769467 10.71563468 0.55769467 10.71563468 -1 7 C-5.3162525 6.45733887 -5.3162525 6.45733887 -9 8 Z " fill="#8FBB54" transform="translate(469,177)"/>
<path d="M0 0 C0.99 0.66 1.98 1.32 3 2 C3.40843923 4.71203652 3.13336867 7.2437142 3 10 C2.34 10 1.68 10 1 10 C0.34 7.69 -0.32 5.38 -1 3 C-3.97 2.505 -3.97 2.505 -7 2 C-7.73234651 6.07024517 -7.73234651 6.07024517 -7 10 C-4.60390733 12.4516171 -2.08333308 14.36029085 0.71484375 16.3359375 C3 18 3 18 4 20 C4.35519903 23.83614957 4.54724594 26.14629634 2.4375 29.4375 C-0.91852406 31.58879747 -3.08421671 31.48947291 -7 31 C-9.4375 30 -9.4375 30 -11 28 C-11.33145271 25.24513897 -11.18316636 22.79328696 -11 20 C-10.01 20 -9.02 20 -8 20 C-7.67 22.97 -7.34 25.94 -7 29 C-4.69 29 -2.38 29 0 29 C0.66583424 25.80399564 0.82969178 23.17639396 0 20 C-2.38314825 17.48941066 -4.87695725 15.60465001 -7.71484375 13.62890625 C-10 12 -10 12 -11 10 C-11.57189542 3.70915033 -11.57189542 3.70915033 -9.4375 1.0625 C-6.12655931 -0.38073056 -3.57443322 -0.32494847 0 0 Z " fill="#99B766" transform="translate(491,178)"/>
<path d="M0 0 C3 1 3 1 4 3 C4.04022391 5.3329866 4.04320247 7.66706666 4 10 C3.01 10 2.02 10 1 10 C0.67 7.69 0.34 5.38 0 3 C-1.99954746 2.95745644 -4.00041636 2.95919217 -6 3 C-7.41577477 4.18424326 -7.41577477 4.18424326 -7.0625 7.5625 C-7.041875 8.696875 -7.02125 9.83125 -7 11 C-6.484375 11.226875 -5.96875 11.45375 -5.4375 11.6875 C-4.2309375 12.3371875 -4.2309375 12.3371875 -3 13 C-2.39800781 13.28359375 -1.79601562 13.5671875 -1.17578125 13.859375 C0.99397612 15.07408704 2.42859384 16.05935633 4 18 C4.76965124 21.75069477 4.83187523 25.25656147 4 29 C1.00261059 30.99825961 0.36652492 31.27550398 -3 31.25 C-4.0209375 31.25773437 -4.0209375 31.25773437 -5.0625 31.265625 C-7 31 -7 31 -10 29 C-10.29296875 26.8359375 -10.29296875 26.8359375 -10.1875 24.375 C-10.16042969 23.55773437 -10.13335937 22.74046875 -10.10546875 21.8984375 C-10.07066406 21.27195313 -10.03585937 20.64546875 -10 20 C-9.34 20 -8.68 20 -8 20 C-7.855625 21.134375 -7.71125 22.26875 -7.5625 23.4375 C-7.38828522 26.80777201 -7.38828522 26.80777201 -6 28 C-4.00041636 28.04080783 -1.99954746 28.04254356 0 28 C0.93380961 23.46859347 0.93380961 23.46859347 0 19 C-2.05637494 17.39638009 -2.05637494 17.39638009 -4.5 15.9375 C-8.8989667 13.20206659 -8.8989667 13.20206659 -10 11 C-10.45371143 3.85404504 -10.45371143 3.85404504 -8.9375 1 C-5.93502564 -0.54966419 -3.3167484 -0.2369106 0 0 Z " fill="#9BBE61" transform="translate(396,178)"/>
<path d="M0 0 C10 0 10 0 13 2 C13.30330339 4.75946614 13.41834858 7.24495685 13.375 10 C13.38660156 10.73734375 13.39820313 11.4746875 13.41015625 12.234375 C13.3984375 14.375 13.3984375 14.375 13 18 C9.3558226 20.4294516 7.28758728 20.16179575 3 20 C3 23.3 3 26.6 3 30 C2.01 30.33 1.02 30.66 0 31 C0 20.77 0 10.54 0 0 Z M3 2 C3 7.28 3 12.56 3 18 C9.4 17.8 9.4 17.8 11 16 C11.09900199 14.02287193 11.12970773 12.04209962 11.125 10.0625 C11.12757813 8.98097656 11.13015625 7.89945313 11.1328125 6.78515625 C11.19007789 4.04340337 11.19007789 4.04340337 10 2 C7.69 2 5.38 2 3 2 Z " fill="#A1C26D" transform="translate(256,178)"/>
<path d="M0 0 C0.78503906 0.00515625 1.57007813 0.0103125 2.37890625 0.015625 C3.55259766 0.00789062 3.55259766 0.00789062 4.75 0 C6.94140625 0.265625 6.94140625 0.265625 9.94140625 2.265625 C10.60374695 5.87027918 10.40435891 9.54488324 10.37890625 13.203125 C10.39888672 14.21826172 10.41886719 15.23339844 10.43945312 16.27929688 C10.43880859 17.25318359 10.43816406 18.22707031 10.4375 19.23046875 C10.43935303 20.1237085 10.44120605 21.01694824 10.44311523 21.93725586 C9.94140625 24.265625 9.94140625 24.265625 8.13305664 26.06079102 C4.96929636 27.80003096 2.48822534 27.5880631 -1.05859375 27.265625 C-2.04859375 26.605625 -3.03859375 25.945625 -4.05859375 25.265625 C-4.4309082 22.95898438 -4.4309082 22.95898438 -4.421875 20.109375 C-4.42123047 19.08714844 -4.42058594 18.06492188 -4.41992188 17.01171875 C-4.40380859 15.94050781 -4.38769531 14.86929688 -4.37109375 13.765625 C-4.37431641 12.69441406 -4.37753906 11.62320313 -4.38085938 10.51953125 C-4.31175791 0.55635586 -4.31175791 0.55635586 0 0 Z M-2.05859375 3.265625 C-2.30895349 6.57079434 -2.24381327 9.88958541 -2.24609375 13.203125 C-2.25833984 14.13576172 -2.27058594 15.06839844 -2.28320312 16.02929688 C-2.28513672 16.92068359 -2.28707031 17.81207031 -2.2890625 18.73046875 C-2.29317139 19.551521 -2.29728027 20.37257324 -2.30151367 21.21850586 C-2.24599255 23.49079724 -2.24599255 23.49079724 -0.05859375 25.265625 C2.44140625 25.59895833 2.44140625 25.59895833 4.94140625 25.265625 C7.12880505 23.49079724 7.12880505 23.49079724 7.18432617 21.21850586 C7.18021729 20.39745361 7.1761084 19.57640137 7.171875 18.73046875 C7.16994141 17.83908203 7.16800781 16.94769531 7.16601562 16.02929688 C7.15376953 15.09666016 7.14152344 14.16402344 7.12890625 13.203125 C7.12793945 11.79836914 7.12793945 11.79836914 7.12695312 10.36523438 C7.49910092 5.98125968 7.49910092 5.98125968 5.94140625 2.265625 C1.62515375 1.72296387 1.62515375 1.72296387 -2.05859375 3.265625 Z " fill="#9DBD69" transform="translate(286.05859375,181.734375)"/>
<path d="M0 0 C0.7940625 -0.01417969 1.588125 -0.02835938 2.40625 -0.04296875 C4.5 0.1875 4.5 0.1875 6.5 2.1875 C6.77629475 5.86774605 6.5859315 9.49244557 6.5 13.1875 C2.87 13.1875 -0.76 13.1875 -4.5 13.1875 C-4.355625 14.816875 -4.21125 16.44625 -4.0625 18.125 C-3.98128906 19.04152344 -3.90007812 19.95804688 -3.81640625 20.90234375 C-3.73955024 23.14909732 -3.73955024 23.14909732 -2.5 24.1875 C-0.83382885 24.22813832 0.83388095 24.230221 2.5 24.1875 C3.49 20.7225 3.49 20.7225 4.5 17.1875 C5.16 17.1875 5.82 17.1875 6.5 17.1875 C6.79296875 23.2421875 6.79296875 23.2421875 6.5 25.1875 C2.81282562 27.64561625 0.85654296 27.49868164 -3.5 27.1875 C-6.5 25.1875 -6.5 25.1875 -7.5 22.1875 C-7.59130522 20.81482077 -7.63065525 19.43821082 -7.6328125 18.0625 C-7.63410156 17.27359375 -7.63539063 16.4846875 -7.63671875 15.671875 C-7.63285156 14.85203125 -7.62898438 14.0321875 -7.625 13.1875 C-7.62886719 12.36765625 -7.63273437 11.5478125 -7.63671875 10.703125 C-7.63542969 9.91421875 -7.63414062 9.1253125 -7.6328125 8.3125 C-7.63168457 7.59320313 -7.63055664 6.87390625 -7.62939453 6.1328125 C-7.5 4.1875 -7.5 4.1875 -6.5 1.1875 C-4.14653604 0.01076802 -2.6193967 0.02126134 0 0 Z M-4.5 3.1875 C-4.57179964 4.70678038 -4.58392007 6.22917482 -4.5625 7.75 C-4.541875 9.214375 -4.52125 10.67875 -4.5 12.1875 C-1.53 12.1875 1.44 12.1875 4.5 12.1875 C4.54125 10.90875 4.5825 9.63 4.625 8.3125 C4.65980469 7.23355469 4.65980469 7.23355469 4.6953125 6.1328125 C4.68331689 3.94886355 4.68331689 3.94886355 2.5 2.1875 C-1.30011859 1.66957372 -1.30011859 1.66957372 -4.5 3.1875 Z " fill="#98BD63" transform="translate(328.5,181.8125)"/>
<path d="M0 0 C5.28030191 1.39772698 7.90773362 4.74033623 11 9 C14.8913138 15.70916172 16.11578753 22.59126721 14.5390625 30.234375 C12.83161647 36.0597791 9.88584868 40.38476872 6 45 C5.34 44.67 4.68 44.34 4 44 C4.67675781 43.36384766 4.67675781 43.36384766 5.3671875 42.71484375 C10.55072868 37.27088543 11.55402145 30.90576405 12.21484375 23.63671875 C11.95931345 20.50066501 11.27189962 20.01946633 9 18 C8.3125 14.3125 8.3125 14.3125 8 11 C7.236875 10.896875 6.47375 10.79375 5.6875 10.6875 C2.80299352 9.94960299 1.64504011 9.46756016 0 7 C0.375 5 0.375 5 1 3 C0.67 2.01 0.34 1.02 0 0 Z " fill="#5F8641" transform="translate(768,188)"/>
<path d="M0 0 C1.17369141 -0.02513672 1.17369141 -0.02513672 2.37109375 -0.05078125 C4.5625 0.3125 4.5625 0.3125 6.3359375 1.5078125 C8.71363463 5.00620764 7.72126653 9.23749249 7.5625 13.3125 C3.9325 13.6425 0.3025 13.9725 -3.4375 14.3125 C-3.55070856 19.39553686 -3.55070856 19.39553686 -2.4375 24.3125 C-0.4575 24.3125 1.5225 24.3125 3.5625 24.3125 C4.5525 20.8475 4.5525 20.8475 5.5625 17.3125 C6.2225 17.3125 6.8825 17.3125 7.5625 17.3125 C7.92165493 23.65757042 7.92165493 23.65757042 6.5 26.25 C3.50757644 27.89100647 0.9078492 27.55145351 -2.4375 27.3125 C-3.4275 26.9825 -4.4175 26.6525 -5.4375 26.3125 C-7.38095974 22.42558052 -6.62230803 17.58735419 -6.625 13.3125 C-6.63724609 12.28898438 -6.64949219 11.26546875 -6.66210938 10.2109375 C-6.66500977 8.74527344 -6.66500977 8.74527344 -6.66796875 7.25 C-6.67207764 6.35152344 -6.67618652 5.45304688 -6.68041992 4.52734375 C-6.2072245 0.21294292 -3.77759104 0.01860882 0 0 Z M-3.4375 2.3125 C-4.5952506 5.78575181 -4.50616652 8.67317448 -4.4375 12.3125 C-1.4675 12.3125 1.5025 12.3125 4.5625 12.3125 C4.583125 10.848125 4.60375 9.38375 4.625 7.875 C4.63660156 7.05128906 4.64820313 6.22757813 4.66015625 5.37890625 C4.79517348 3.32086062 4.79517348 3.32086062 3.5625 2.3125 C1.22952567 2.27157063 -1.10455225 2.27008277 -3.4375 2.3125 Z " fill="#9ABC61" transform="translate(447.4375,181.6875)"/>
<path d="M0 0 C2.09375 -0.328125 2.09375 -0.328125 4.5 -0.25 C5.69109375 -0.22679687 5.69109375 -0.22679687 6.90625 -0.203125 C9 0 9 0 11 1 C11 3.31 11 5.62 11 8 C10.34 8 9.68 8 9 8 C8.67 6.35 8.34 4.7 8 3 C6.02 3 4.04 3 2 3 C1.2444568 5.7412565 1.2444568 5.7412565 2 9 C4.77448834 11.39464768 7.83819743 13.16507866 11 15 C12 16 12 16 12.25 19.875 C12.20006601 22.40801531 12.13648888 23.74307975 10.9375 26 C7.85873258 27.58904125 5.39844421 27.35773097 2 27 C-0.4375 25.875 -0.4375 25.875 -2 24 C-2.25 20.8125 -2.25 20.8125 -2 18 C-1.01 18 -0.02 18 1 18 C1.33 19.98 1.66 21.96 2 24 C3.98 24 5.96 24 8 24 C8.75413353 20.75643424 8.75413353 20.75643424 8 17 C5.82109023 15.08480749 3.58301408 13.69921774 1.06640625 12.26171875 C-1 11 -1 11 -2 9 C-2.25860135 4.94857881 -2.30441554 3.45662331 0 0 Z " fill="#9AB962" transform="translate(365,182)"/>
<path d="M0 0 C0.66 0 1.32 0 2 0 C2.33 1.65 2.66 3.3 3 5 C4.27875 4.979375 5.5575 4.95875 6.875 4.9375 C10.75 4.875 10.75 4.875 13 6 C13.08678303 9.95819611 13.14031733 13.91614934 13.1875 17.875 C13.21263672 19.00292969 13.23777344 20.13085938 13.26367188 21.29296875 C13.27817383 22.90751953 13.27817383 22.90751953 13.29296875 24.5546875 C13.31653442 26.04718018 13.31653442 26.04718018 13.34057617 27.56982422 C13.22818604 28.37178223 13.1157959 29.17374023 13 30 C9.31282562 32.45811625 7.35654296 32.31118164 3 32 C2.01 31.34 1.02 30.68 0 30 C-0.34057617 27.01904297 -0.34057617 27.01904297 -0.29296875 23.2421875 C-0.28872391 22.57913605 -0.28447906 21.91608459 -0.28010559 21.23294067 C-0.26329971 19.11321559 -0.22564701 16.99443812 -0.1875 14.875 C-0.17245549 13.43881581 -0.15876668 12.00261672 -0.14648438 10.56640625 C-0.1133909 7.04396236 -0.0615968 3.52207364 0 0 Z M3 7 C1.2319802 10.5360396 1.81535087 14.60571255 1.8125 18.5 C1.80025391 19.38042969 1.78800781 20.26085937 1.77539062 21.16796875 C1.77345703 22.00972656 1.77152344 22.85148437 1.76953125 23.71875 C1.76542236 24.49154297 1.76131348 25.26433594 1.75708008 26.06054688 C1.82823384 28.23739713 1.82823384 28.23739713 4 30 C6.5 30.33333333 6.5 30.33333333 9 30 C11.1873988 28.22517224 11.1873988 28.22517224 11.24291992 25.95288086 C11.23881104 25.13182861 11.23470215 24.31077637 11.23046875 23.46484375 C11.22853516 22.57345703 11.22660156 21.68207031 11.22460938 20.76367188 C11.21236328 19.83103516 11.20011719 18.89839844 11.1875 17.9375 C11.1865332 16.53274414 11.1865332 16.53274414 11.18554688 15.09960938 C11.55769467 10.71563468 11.55769467 10.71563468 10 7 C7.66702567 6.95907063 5.33294775 6.95758277 3 7 Z " fill="#9AC360" transform="translate(299,177)"/>
<path d="M0 0 C0.78503906 0.00515625 1.57007813 0.0103125 2.37890625 0.015625 C3.55259766 0.00789062 3.55259766 0.00789062 4.75 0 C6.94140625 0.265625 6.94140625 0.265625 9.94140625 2.265625 C10.29785156 4.48046875 10.29785156 4.48046875 10.26953125 7.203125 C10.264375 8.18023437 10.25921875 9.15734375 10.25390625 10.1640625 C10.23328125 11.18757812 10.21265625 12.21109375 10.19140625 13.265625 C10.18625 14.28914062 10.18109375 15.31265625 10.17578125 16.3671875 C10.0956768 23.95708389 10.0956768 23.95708389 8.94140625 26.265625 C7.015625 26.75 7.015625 26.75 4.62890625 27.015625 C3.45908203 27.16257813 3.45908203 27.16257813 2.265625 27.3125 C-0.37643033 27.25921485 -1.76099628 26.50076888 -4.05859375 25.265625 C-4.11646043 21.47402203 -4.15214429 17.68253189 -4.18359375 13.890625 C-4.20035156 12.81039062 -4.21710938 11.73015625 -4.234375 10.6171875 C-4.24082031 9.5859375 -4.24726563 8.5546875 -4.25390625 7.4921875 C-4.26437988 6.53908691 -4.27485352 5.58598633 -4.28564453 4.60400391 C-3.98487303 1.50638082 -3.1374476 0.40483195 0 0 Z M-1.05859375 2.265625 C-2.28575398 5.9471057 -2.24266189 9.36973262 -2.24609375 13.203125 C-2.25833984 13.91919922 -2.27058594 14.63527344 -2.28320312 15.37304688 C-2.29374708 19.16535608 -2.1816859 22.05161594 -0.05859375 25.265625 C1.92140625 25.265625 3.90140625 25.265625 5.94140625 25.265625 C8.44072237 21.46706121 8.23874405 17.58581662 8.19140625 13.203125 C8.19914062 12.48318359 8.206875 11.76324219 8.21484375 11.02148438 C8.20078543 7.23628137 8.08900315 5.48702035 5.94140625 2.265625 C2.35783384 2.01546627 2.35783384 2.01546627 -1.05859375 2.265625 Z " fill="#98B960" transform="translate(407.05859375,181.734375)"/>
<path d="M0 0 C0.99 0.33 1.98 0.66 3 1 C3.8850828 3.39475581 4.56885816 5.6024857 5.1875 8.0625 C5.785625 10.351875 6.38375 12.64125 7 15 C8.65 10.05 10.3 5.1 12 0 C12.66 0 13.32 0 14 0 C13.39575576 6.40051308 11.94204526 12.23605362 10.0625 18.375 C9.79759766 19.27605469 9.53269531 20.17710937 9.25976562 21.10546875 C9.00001953 21.96527344 8.74027344 22.82507813 8.47265625 23.7109375 C8.23812744 24.48743652 8.00359863 25.26393555 7.76196289 26.06396484 C7 28 7 28 5 30 C2.375 30.125 2.375 30.125 0 30 C0 29.34 0 28.68 0 28 C0.99 27.67 1.98 27.34 3 27 C4.57047874 20.58721181 3.32829379 15.4824324 1.47363281 9.28100586 C0.48901687 5.97776443 0 3.49467177 0 0 Z " fill="#94B956" transform="translate(551,182)"/>
<path d="M0 0 C0.99 0 1.98 0 3 0 C3.27714844 1.21558594 3.55429687 2.43117187 3.83984375 3.68359375 C4.20553898 5.26827307 4.57143475 6.85290612 4.9375 8.4375 C5.11990234 9.23994141 5.30230469 10.04238281 5.49023438 10.86914062 C6.09661008 14.74952729 6.09661008 14.74952729 8 18 C9.32 12.06 10.64 6.12 12 0 C12.99 0 13.98 0 15 0 C13.38542925 9.12633251 11.65688033 18.10604598 9 27 C8.01 27 7.02 27 6 27 C4.99425299 23.0639449 3.99638995 19.12593326 3 15.1875 C2.71382813 14.06794922 2.42765625 12.94839844 2.1328125 11.79492188 C1.86210937 10.72177734 1.59140625 9.64863281 1.3125 8.54296875 C1.06113281 7.55321045 0.80976563 6.56345215 0.55078125 5.54370117 C0 3 0 3 0 0 Z " fill="#98BE5D" transform="translate(424,182)"/>
<path d="M0 0 C0.66 0.33 1.32 0.66 2 1 C1.34 3.64 0.68 6.28 0 9 C3.153368 9.70074844 5.72724974 10 9 10 C9.33 9.67 9.66 9.34 10 9 C11.32594105 8.63837971 12.65938457 8.30271961 14 8 C14.33 8.99 14.66 9.98 15 11 C18.26973842 10.55121237 21.51583353 10.09903405 24.75 9.4375 C27 9 27 9 30 9 C30.99 10.485 30.99 10.485 32 12 C28.50836953 12.82302718 25.56682879 12.98923852 22 12.75 C15.00433402 12.64544521 9.32223879 15.26096189 3 18 C2.01 18.33 1.02 18.66 0 19 C-1.28130809 12.59345955 -1.59843905 6.39375619 0 0 Z " fill="#7FB541" transform="translate(727,136)"/>
<path d="M0 0 C0.5775 0.20625 1.155 0.4125 1.75 0.625 C0.76 2.11 0.76 2.11 -0.25 3.625 C-0.88292383 5.73780345 -0.88292383 5.73780345 -1.25 7.625 C-2.24 7.625 -3.23 7.625 -4.25 7.625 C-5.90956108 9.53987817 -7.11788359 11.36076718 -8.25 13.625 C-8.93707031 13.20347656 -9.62414062 12.78195313 -10.33203125 12.34765625 C-11.23308594 11.79980469 -12.13414062 11.25195312 -13.0625 10.6875 C-14.40248047 9.86958984 -14.40248047 9.86958984 -15.76953125 9.03515625 C-18.25703562 7.51490422 -18.25703562 7.51490422 -21.25 6.625 C-21.25 5.965 -21.25 5.305 -21.25 4.625 C-20.21359375 4.43164062 -19.1771875 4.23828125 -18.109375 4.0390625 C-16.73952391 3.77635133 -15.36973548 3.51331329 -14 3.25 C-13.31808594 3.12367187 -12.63617187 2.99734375 -11.93359375 2.8671875 C-8.03982399 2.1111157 -3.76221521 -0.62703587 0 0 Z " fill="#79AC3F" transform="translate(712.25,63.375)"/>
<path d="M0 0 C-2.83556587 1.41778293 -4.9908706 0.86257622 -8.125 0.5625 C-9.22070312 0.46066406 -10.31640625 0.35882813 -11.4453125 0.25390625 C-12.28835938 0.17011719 -13.13140625 0.08632812 -14 0 C-14.33 0.99 -14.66 1.98 -15 3 C-15.66 3 -16.32 3 -17 3 C-17 2.34 -17 1.68 -17 1 C-22.51078069 2.40700784 -28.12956815 3.9893744 -33 7 C-33.309375 7.86625 -33.61875 8.7325 -33.9375 9.625 C-34.288125 10.40875 -34.63875 11.1925 -35 12 C-37.45289169 12.77459738 -39.86331728 13.15127155 -42.40625 13.53125 C-44.78897048 13.96186213 -46.53151838 14.56660902 -48.6875 15.625 C-52.36697929 17.15233102 -55.0557902 17.24148223 -59 17 C-59 16.67 -59 16.34 -59 16 C-58.08734375 15.83177734 -58.08734375 15.83177734 -57.15625 15.66015625 C-49.20561371 13.87126308 -42.83408242 10.3528841 -35.89453125 6.25390625 C-25.82642286 0.33043868 -11.31487896 -6.78892738 0 0 Z " fill="#6A8F48" transform="translate(815,91)"/>
<path d="M0 0 C0.33 0 0.66 0 1 0 C1.02312202 11.84765173 1.04091437 23.69529814 1.05181217 35.5429678 C1.05704131 41.04370862 1.06413951 46.54443405 1.07543945 52.04516602 C1.08626725 57.3489656 1.0922766 62.65275035 1.09487724 67.95656013 C1.09673169 69.98485612 1.10035267 72.01315126 1.10573006 74.04144096 C1.11293906 76.87196514 1.113991 79.70242718 1.11352539 82.53295898 C1.11712067 83.38028091 1.12071594 84.22760284 1.12442017 85.1006012 C1.11405216 90.88594784 1.11405216 90.88594784 0 92 C-1.85287502 92.07226502 -3.70833878 92.0838122 -5.5625 92.0625 C-7.08037109 92.04896484 -7.08037109 92.04896484 -8.62890625 92.03515625 C-9.41136719 92.02355469 -10.19382812 92.01195312 -11 92 C-10.34 91.01 -9.68 90.02 -9 89 C-5.04 89.495 -5.04 89.495 -1 90 C-0.67 60.3 -0.34 30.6 0 0 Z " fill="#49494A" transform="translate(309,66)"/>
<path d="M0 0 C1.32 0.33 2.64 0.66 4 1 C3.34 1 2.68 1 2 1 C2 2.216875 2 3.43375 2 4.6875 C1.65582153 7.31069804 1.33036822 8.63606496 -0.4609375 10.609375 C-5.7258789 14.26259965 -11.63375665 15.41798567 -18 15 C-18.66 14.34 -19.32 13.68 -20 13 C-16.7 13 -13.4 13 -10 13 C-10.33 11.35 -10.66 9.7 -11 8 C-5.25 6 -5.25 6 -3 6 C-2.01 4.02 -1.02 2.04 0 0 Z " fill="#638C3F" transform="translate(683,242)"/>
<path d="M0 0 C3.63 0 7.26 0 11 0 C11.66 0.66 12.32 1.32 13 2 C8.545 2.495 8.545 2.495 4 3 C3.67 10.92 3.34 18.84 3 27 C2.01 27 1.02 27 0 27 C0 18.09 0 9.18 0 0 Z " fill="#92B65A" transform="translate(338,182)"/>
<path d="M0 0 C0.99 0 1.98 0 3 0 C3 10.56 3 21.12 3 32 C2.01 32 1.02 32 0 32 C0 21.44 0 10.88 0 0 Z " fill="#9AC25A" transform="translate(315,177)"/>
<path d="M0 0 C8.19348189 0.42017856 14.08558096 5.73830514 19.375 11.5625 C26 19.20987654 26 19.20987654 26 23 C25.34 23 24.68 23 24 23 C24 22.34 24 21.68 24 21 C23.01 20.67 22.02 20.34 21 20 C19.61423077 18.37667033 18.27358732 16.71275535 17 15 C17.33 14.34 17.66 13.68 18 13 C15.36 12.67 12.72 12.34 10 12 C9.7525 10.39125 9.7525 10.39125 9.5 8.75 C8.79500702 6.15625719 8.30861863 5.21855238 6.0859375 3.64453125 C4.08280578 2.6642 2.08806442 1.78181017 0 1 C0 0.67 0 0.34 0 0 Z " fill="#628744" transform="translate(815,91)"/>
<path d="M0 0 C2.97 0 5.94 0 9 0 C9 0.66 9 1.32 9 2 C7.35 2.66 5.7 3.32 4 4 C3.67 11.59 3.34 19.18 3 27 C2.01 26.67 1.02 26.34 0 26 C0 17.42 0 8.84 0 0 Z " fill="#94BE59" transform="translate(272,182)"/>
<path d="M0 0 C0.66 0 1.32 0 2 0 C2.03758423 0.90093384 2.03758423 0.90093384 2.07592773 1.82006836 C2.1915528 4.52611437 2.31442936 7.23178283 2.4375 9.9375 C2.47681641 10.88302734 2.51613281 11.82855469 2.55664062 12.80273438 C2.59853516 13.70185547 2.64042969 14.60097656 2.68359375 15.52734375 C2.72025146 16.35999756 2.75690918 17.19265137 2.79467773 18.05053711 C2.79367103 20.00338858 2.79367103 20.00338858 4 21 C6.5 21.16666667 6.5 21.16666667 9 21 C10.58403524 19.41596476 10.21974935 17.7228362 10.31640625 15.52734375 C10.35830078 14.62822266 10.40019531 13.72910156 10.44335938 12.80273438 C10.48267578 11.85720703 10.52199219 10.91167969 10.5625 9.9375 C10.60568359 8.98810547 10.64886719 8.03871094 10.69335938 7.06054688 C10.79979276 4.70718647 10.90181008 2.35371646 11 0 C11.33 0 11.66 0 12 0 C12.33 7.26 12.66 14.52 13 22 C8.98113663 24.00943169 7.34323398 24.36963693 3 24 C2.01 23.34 1.02 22.68 0 22 C-0.34057617 19.75341797 -0.34057617 19.75341797 -0.29296875 16.9921875 C-0.28330078 16.00605469 -0.27363281 15.01992187 -0.26367188 14.00390625 C-0.23853516 12.97136719 -0.21339844 11.93882812 -0.1875 10.875 C-0.17396484 9.83472656 -0.16042969 8.79445312 -0.14648438 7.72265625 C-0.11105228 5.14792373 -0.06165221 2.5742167 0 0 Z " fill="#A4CD6D" transform="translate(458,185)"/>
<path d="M0 0 C0.99 0.33 1.98 0.66 3 1 C2.4375 2.875 2.4375 2.875 1 5 C-2.625 6.25 -2.625 6.25 -6 7 C-5.67 9.31 -5.34 11.62 -5 14 C-5.99 14 -6.98 14 -8 14 C-9.33981486 14.3062434 -10.67511887 14.63451555 -12 15 C-11.67 15.99 -11.34 16.98 -11 18 C-10.34 18.33 -9.68 18.66 -9 19 C-9.639375 19.12375 -10.27875 19.2475 -10.9375 19.375 C-11.618125 19.58125 -12.29875 19.7875 -13 20 C-13.33 20.66 -13.66 21.32 -14 22 C-14.99 22 -15.98 22 -17 22 C-14.83139724 12.3961878 -9.116651 7.45007812 -1.87109375 1.1484375 C-1.25363281 0.76945312 -0.63617187 0.39046875 0 0 Z " fill="#85B443" transform="translate(628,74)"/>
<path d="M0 0 C3 1 3 1 4 3 C4.04022391 5.3329866 4.04320247 7.66706666 4 10 C3.01 10 2.02 10 1 10 C0.67 7.69 0.34 5.38 0 3 C-1.99954746 2.95745644 -4.00041636 2.95919217 -6 3 C-7.41577477 4.18424326 -7.41577477 4.18424326 -7.0625 7.5625 C-7.041875 8.696875 -7.02125 9.83125 -7 11 C-6.071875 11.433125 -6.071875 11.433125 -5.125 11.875 C-3 13 -3 13 -1 15 C-1.99 15.33 -2.98 15.66 -4 16 C-8.66666667 13.66666667 -8.66666667 13.66666667 -10 11 C-10.45371143 3.85404504 -10.45371143 3.85404504 -8.9375 1 C-5.93502564 -0.54966419 -3.3167484 -0.2369106 0 0 Z " fill="#98B665" transform="translate(396,178)"/>
<path d="M0 0 C1.32 0.33 2.64 0.66 4 1 C3.34 2.98 2.68 4.96 2 7 C1.34 7 0.68 7 0 7 C-0.33 8.010625 -0.66 9.02125 -1 10.0625 C-3.09632972 14.91767873 -6.59329223 18.16137255 -11 21 C-13.49352551 21.79211619 -15.35500709 21.94489598 -18 22 C-16.140128 20.06263333 -14.28041909 18.21956218 -12.1640625 16.5625 C-6.31137427 11.89828869 -3.20496546 6.71343143 0 0 Z " fill="#729B48" transform="translate(730,41)"/>
<path d="M0 0 C2.97 0.99 5.94 1.98 9 3 C8.34 4.32 7.68 5.64 7 7 C6.67 6.01 6.34 5.02 6 4 C5.38125 4.185625 4.7625 4.37125 4.125 4.5625 C2 5 2 5 0 4 C0.66 5.32 1.32 6.64 2 8 C1.34 8.66 0.68 9.32 0 10 C-0.30599063 12.56916657 -0.51087087 15.04758384 -0.625 17.625 C-0.66367187 18.33140625 -0.70234375 19.0378125 -0.7421875 19.765625 C-0.83647724 21.50998524 -0.91932891 23.25495691 -1 25 C-1.33 25 -1.66 25 -2 25 C-2.66 18.4 -3.32 11.8 -4 5 C-3.34 4.67 -2.68 4.34 -2 4 C-1.34 2.68 -0.68 1.36 0 0 Z " fill="#7DAF47" transform="translate(730,103)"/>
<path d="M0 0 C2.56995074 1.28497537 2.90434463 2.49912373 4.125 5.0625 C4.47820313 5.79597656 4.83140625 6.52945313 5.1953125 7.28515625 C5.46085938 7.85105469 5.72640625 8.41695312 6 9 C7.98 9 9.96 9 12 9 C11.68289063 9.69480469 11.36578125 10.38960937 11.0390625 11.10546875 C9.90598948 14.26188644 9.59519989 16.97280167 9.375 20.3125 C9.30023437 21.38113281 9.22546875 22.44976562 9.1484375 23.55078125 C9.09945312 24.35902344 9.05046875 25.16726562 9 26 C8.67 26 8.34 26 8 26 C7.90203125 25.38253906 7.8040625 24.76507813 7.703125 24.12890625 C6.60634612 17.91697757 4.80246989 12.63715208 2 7 C1.4225 5.824375 0.845 4.64875 0.25 3.4375 C-0.1625 2.633125 -0.575 1.82875 -1 1 C-0.67 0.67 -0.34 0.34 0 0 Z " fill="#739C48" transform="translate(637,185)"/>
<path d="M0 0 C0.66 0 1.32 0 2 0 C2 10.56 2 21.12 2 32 C1.34 32 0.68 32 0 32 C0 21.44 0 10.88 0 0 Z " fill="#9EC35F" transform="translate(546,177)"/>
<path d="M0 0 C0.66 0 1.32 0 2 0 C2 10.56 2 21.12 2 32 C1.34 32 0.68 32 0 32 C0 21.44 0 10.88 0 0 Z " fill="#98C55B" transform="translate(420,177)"/>
<path d="M0 0 C7.21655695 1.62372531 11.90272274 6.41873569 16.4375 12 C18.20071747 15.38537754 18.69717327 18.21466585 19 22 C18.34 21.01 17.68 20.02 17 19 C16.34 18.34 15.68 17.68 15 17 C14.01 17 13.02 17 12 17 C11 11.25 11 11.25 11 9 C7.63279972 5.86238156 5.49352265 3.99856059 1 3 C0.67 2.01 0.34 1.02 0 0 Z " fill="#648645" transform="translate(767,22)"/>
<path d="M0 0 C0.66 -0.33 1.32 -0.66 2 -1 C2.33 -0.01 2.66 0.98 3 2 C-0.49163047 2.82302718 -3.43317121 2.98923852 -7 2.75 C-13.99566598 2.64544521 -19.67776121 5.26096189 -26 8 C-26.99 8.33 -27.98 8.66 -29 9 C-29 8.34 -29 7.68 -29 7 C-26 5 -26 5 -22 5 C-21.67 4.01 -21.34 3.02 -21 2 C-19.68 2.33 -18.36 2.66 -17 3 C-17 2.34 -17 1.68 -17 1 C-14.73052303 0.63724344 -12.45935265 0.28506814 -10.1875 -0.0625 C-8.92292969 -0.25972656 -7.65835938 -0.45695313 -6.35546875 -0.66015625 C-3 -1 -3 -1 0 0 Z " fill="#7BA743" transform="translate(756,146)"/>
<path d="M0 0 C6.89908336 -0.34817804 13.80592268 -0.50037393 20 3 C20.33 3.99 20.66 4.98 21 6 C20.34 6 19.68 6 19 6 C19 5.34 19 4.68 19 4 C18.34 4 17.68 4 17 4 C17 4.66 17 5.32 17 6 C13.125 7 13.125 7 12 7 C10.66431979 7.32380126 9.33076989 7.65657551 8 8 C8.66 6.35 9.32 4.7 10 3 C9.01 2.34 8.02 1.68 7 1 C6.67 1.66 6.34 2.32 6 3 C6 2.34 6 1.68 6 1 C4.02 1 2.04 1 0 1 C0 0.67 0 0.34 0 0 Z " fill="#618A3E" transform="translate(667,64)"/>
<path d="M0 0 C0.99 1.32 1.98 2.64 3 4 C-2.12181749 8.17832479 -6.47603393 8.74213573 -13 9 C-13 8.34 -13 7.68 -13 7 C-12.34 6.67 -11.68 6.34 -11 6 C-11 5.01 -11 4.02 -11 3 C-10.01 2.67 -9.02 2.34 -8 2 C-7.360625 2.33 -6.72125 2.66 -6.0625 3 C-4.03474079 4.22866351 -4.03474079 4.22866351 -1.75 3.625 C-1.1725 3.41875 -0.595 3.2125 0 3 C0 2.01 0 1.02 0 0 Z " fill="#64913C" transform="translate(769,230)"/>
<path d="M0 0 C2 2 2 2 2.22705078 4.70556641 C2.21657715 5.82624512 2.20610352 6.94692383 2.1953125 8.1015625 C2.18886719 9.31328125 2.18242187 10.525 2.17578125 11.7734375 C2.15902344 13.04445312 2.14226562 14.31546875 2.125 15.625 C2.11597656 16.90375 2.10695313 18.1825 2.09765625 19.5 C2.07402303 22.66685167 2.04107629 25.83333424 2 29 C1.01 29.33 0.02 29.66 -1 30 C-0.67 20.1 -0.34 10.2 0 0 Z " fill="#90BC57" transform="translate(257,179)"/>
<path d="M0 0 C0.66 0 1.32 0 2 0 C2 8.91 2 17.82 2 27 C1.34 27 0.68 27 0 27 C0 18.09 0 9.18 0 0 Z " fill="#9EC763" transform="translate(498,182)"/>
<path d="M0 0 C2 1 2 1 3 3 C2.34 3.66 1.68 4.32 1 5 C0.75393985 8.00886724 0.62619218 10.93217752 0.5859375 13.9453125 C0.56657135 14.8303244 0.5472052 15.7153363 0.5272522 16.62716675 C0.46737277 19.45967916 0.42103787 22.29223203 0.375 25.125 C0.33682789 27.04298668 0.29777662 28.96095607 0.2578125 30.87890625 C0.16166445 35.58579748 0.07766458 40.29276896 0 45 C-0.33 45 -0.66 45 -1 45 C-1.19204288 38.91307557 -1.3708004 32.82596325 -1.53710938 26.73828125 C-1.59560506 24.66623402 -1.65776739 22.59428699 -1.72363281 20.52246094 C-1.81753115 17.54901369 -1.8983526 14.57545852 -1.9765625 11.6015625 C-2.00875885 10.67131256 -2.0409552 9.74106262 -2.0741272 8.78262329 C-2.09429901 7.92188202 -2.11447083 7.06114075 -2.13525391 6.17431641 C-2.15746002 5.41486725 -2.17966614 4.65541809 -2.20254517 3.87295532 C-2 2 -2 2 0 0 Z " fill="#2F2F31" transform="translate(90,112)"/>
<path d="M0 0 C9.24 0 18.48 0 28 0 C27.67 0.99 27.34 1.98 27 3 C26.01 3.33 25.02 3.66 24 4 C23.67 3.67 23.34 3.34 23 3 C20.32941149 2.85884839 17.67567762 2.95752893 15 3 C14.67 3.66 14.34 4.32 14 5 C13.67 4.34 13.34 3.68 13 3 C7.67829506 2.70437633 7.67829506 2.70437633 3 5 C3 4.01 3 3.02 3 2 C2.01 2 1.02 2 0 2 C0 1.34 0 0.68 0 0 Z " fill="#7AA347" transform="translate(739,107)"/>
<path d="M0 0 C0.66 0 1.32 0 2 0 C2 5.94 2 11.88 2 18 C0.02 18.99 0.02 18.99 -2 20 C-2 17.58249691 -1.84997092 15.37788331 -1.5625 12.98828125 C-1.47226562 12.23095703 -1.38203125 11.47363281 -1.2890625 10.69335938 C-1.19367188 9.90767578 -1.09828125 9.12199219 -1 8.3125 C-0.90460938 7.51521484 -0.80921875 6.71792969 -0.7109375 5.89648438 C-0.47552634 3.93080116 -0.23796974 1.9653751 0 0 Z " fill="#94BD55" transform="translate(294,188)"/>
<path d="M0 0 C0.66 0.33 1.32 0.66 2 1 C0.68 2.65 -0.64 4.3 -2 6 C-2.99 5.67 -3.98 5.34 -5 5 C-5.33 5.99 -5.66 6.98 -6 8 C-6.66 7.835 -7.32 7.67 -8 7.5 C-11.73099794 6.87816701 -15.21873378 6.93591074 -19 7 C-19 6.34 -19 5.68 -19 5 C-17.96359375 4.80664062 -16.9271875 4.61328125 -15.859375 4.4140625 C-14.48952391 4.15135133 -13.11973548 3.88831329 -11.75 3.625 C-11.06808594 3.49867187 -10.38617187 3.37234375 -9.68359375 3.2421875 C-6.13198319 2.55255438 -3.20646774 1.63377166 0 0 Z " fill="#7EA54C" transform="translate(710,63)"/>
<path d="M0 0 C2.33301986 0.03824623 4.66711508 0.04574284 7 0 C3.62223025 1.84618297 0.17986666 2.95263196 -3.5 4.0625 C-5.18609375 4.57490234 -5.18609375 4.57490234 -6.90625 5.09765625 C-9.26381291 5.78527876 -11.61163229 6.43217728 -14 7 C-5.75641671 -1.47257172 -5.75641671 -1.47257172 0 0 Z " fill="#628840" transform="translate(762,75)"/>
<path d="M0 0 C2.06282855 4.1256571 2.33537691 6.40953549 2.5625 10.9375 C2.77864225 15.06184697 3.07487741 18.97074708 4 23 C2.68 22.67 1.36 22.34 0 22 C0 14.74 0 7.48 0 0 Z " fill="#9CC558" transform="translate(403,185)"/>
<path d="M0 0 C2.05859375 -0.36328125 2.05859375 -0.36328125 4.4375 -0.3125 C5.21996094 -0.30863281 6.00242187 -0.30476562 6.80859375 -0.30078125 C9 0 9 0 12 2 C12 3.32 12 4.64 12 6 C11.34 6 10.68 6 10 6 C10 9.63 10 13.26 10 17 C9.67 17 9.34 17 9 17 C8.67 12.38 8.34 7.76 8 3 C4.7 3 1.4 3 -2 3 C-1.34 2.01 -0.68 1.02 0 0 Z " fill="#9AB85D" transform="translate(284,182)"/>
<path d="M0 0 C0.99 0 1.98 0 3 0 C3 3.3 3 6.6 3 10 C2.34 9.01 1.68 8.02 1 7 C0.01 7.495 0.01 7.495 -1 8 C-2.70702735 8.06996014 -4.41668003 8.08440154 -6.125 8.0625 C-7.03507812 8.05347656 -7.94515625 8.04445312 -8.8828125 8.03515625 C-9.58148438 8.02355469 -10.28015625 8.01195312 -11 8 C-11 7.34 -11 6.68 -11 6 C-7.78548731 4.39274365 -4.56387464 4.94251815 -1 5 C-0.67 3.35 -0.34 1.7 0 0 Z " fill="#96B964" transform="translate(469,177)"/>
<path d="M0 0 C3.11257569 0 5.10765685 0.17361624 8 1 C8 2.98 8 4.96 8 7 C4.37 6.01 0.74 5.02 -3 4 C-2.01 2.68 -1.02 1.36 0 0 Z " fill="#77A546" transform="translate(697,184)"/>
<path d="M0 0 C0.33 0 0.66 0 1 0 C1.02887814 3.47914941 1.04675687 6.95826831 1.0625 10.4375 C1.07087891 11.43072266 1.07925781 12.42394531 1.08789062 13.44726562 C1.09111328 14.39150391 1.09433594 15.33574219 1.09765625 16.30859375 C1.10289307 17.18314209 1.10812988 18.05769043 1.11352539 18.95874023 C1 21 1 21 0 22 C-1.85287502 22.07226502 -3.70833878 22.0838122 -5.5625 22.0625 C-6.57441406 22.05347656 -7.58632813 22.04445312 -8.62890625 22.03515625 C-9.41136719 22.02355469 -10.19382812 22.01195312 -11 22 C-10.01 20.515 -10.01 20.515 -9 19 C-6.36 19.33 -3.72 19.66 -1 20 C-0.67 13.4 -0.34 6.8 0 0 Z " fill="#424243" transform="translate(309,136)"/>
<path d="M0 0 C0.33 0 0.66 0 1 0 C1.0093457 0.92337158 1.01869141 1.84674316 1.02832031 2.7980957 C1.07234734 6.22594506 1.13396107 9.65254051 1.20751953 13.07983398 C1.23573541 14.56278942 1.25694702 16.04589543 1.27099609 17.52905273 C1.2924192 19.66207997 1.33905782 21.79329606 1.390625 23.92578125 C1.41157227 25.20880127 1.43251953 26.49182129 1.45410156 27.8137207 C1.68918585 31.09078571 1.68918585 31.09078571 4.03808594 32.94213867 C4.68551758 33.29123291 5.33294922 33.64032715 6 34 C4 35 4 35 0 34 C0 22.78 0 11.56 0 0 Z " fill="#4E4E4F" transform="translate(32,114)"/>
<path d="M0 0 C0.99 0 1.98 0 3 0 C3 4.62 3 9.24 3 14 C2.01 14.33 1.02 14.66 0 15 C0 10.05 0 5.1 0 0 Z " fill="#9AC06A" transform="translate(315,177)"/>
<path d="M0 0 C0.99 0 1.98 0 3 0 C3.33 1.98 3.66 3.96 4 6 C6.31 6 8.62 6 11 6 C11 6.99 11 7.98 11 9 C4.77777778 9.35897436 4.77777778 9.35897436 1.5625 7.875 C-0.6260738 5.24871143 -0.29461899 3.31446363 0 0 Z " fill="#9EBF59" transform="translate(363,200)"/>
<path d="M0 0 C4.75 0.75 4.75 0.75 7 3 C7.1953125 5.3828125 7.1953125 5.3828125 7.125 8.125 C7.10695313 9.03507813 7.08890625 9.94515625 7.0703125 10.8828125 C7.04710937 11.58148438 7.02390625 12.28015625 7 13 C6.01 12.67 5.02 12.34 4 12 C3.83723958 9.98177083 3.67447917 7.96354167 3.51171875 5.9453125 C3.12606964 3.60480784 3.12606964 3.60480784 0 2 C0 1.34 0 0.68 0 0 Z " fill="#94C058" transform="translate(393,193)"/>
<path d="M0 0 C2.79192205 -0.05380578 5.5828141 -0.09357669 8.375 -0.125 C9.1690625 -0.14175781 9.963125 -0.15851563 10.78125 -0.17578125 C12.85492015 -0.19335473 14.92883241 -0.10335168 17 0 C17.66 0.66 18.32 1.32 19 2 C18.67 2.66 18.34 3.32 18 4 C17.34 4 16.68 4 16 4 C16 3.34 16 2.68 16 2 C15.34773437 2.09539062 14.69546875 2.19078125 14.0234375 2.2890625 C8.78486807 2.95354181 4.95773184 3.21793267 0 1 C0 0.67 0 0.34 0 0 Z " fill="#94B95B" transform="translate(507,182)"/>
<path d="M0 0 C1.40668945 0.00966797 1.40668945 0.00966797 2.84179688 0.01953125 C4.30649414 0.04466797 4.30649414 0.04466797 5.80078125 0.0703125 C6.78884766 0.07933594 7.77691406 0.08835938 8.79492188 0.09765625 C11.2346189 0.1212282 13.67382822 0.15413228 16.11328125 0.1953125 C16.11328125 1.5153125 16.11328125 2.8353125 16.11328125 4.1953125 C15.38625 4.0509375 14.65921875 3.9065625 13.91015625 3.7578125 C6.55979329 2.40082241 -0.42059272 1.95703188 -7.88671875 2.1953125 C-4.63281887 0.02604591 -3.75275918 -0.04548799 0 0 Z " fill="#709747" transform="translate(747.88671875,147.8046875)"/>
<path d="M0 0 C0 0.66 0 1.32 0 2 C-0.67546875 1.98839844 -1.3509375 1.97679687 -2.046875 1.96484375 C-2.93890625 1.95582031 -3.8309375 1.94679688 -4.75 1.9375 C-5.63171875 1.92589844 -6.5134375 1.91429687 -7.421875 1.90234375 C-9.7990079 1.99238666 -11.71444143 2.40050923 -14 3 C-16.33300933 3.03888349 -18.66709801 3.0448635 -21 3 C-15.62091506 -2.37908494 -6.90705658 -1.06706093 0 0 Z " fill="#68894E" transform="translate(766,21)"/>
<path d="M0 0 C3.375 0.25 3.375 0.25 7 1 C8.25 2.9375 8.25 2.9375 9 5 C9.99 5.66 10.98 6.32 12 7 C11.67 8.32 11.34 9.64 11 11 C9.16365304 9.35742342 7.3308593 7.71117305 5.5 6.0625 C4.97535156 5.59392578 4.45070313 5.12535156 3.91015625 4.64257812 C2.5878256 3.44904592 1.29166061 2.22665821 0 1 C0 0.67 0 0.34 0 0 Z " fill="#79A14C" transform="translate(624,175)"/>
<path d="M0 0 C0.99 0.33 1.98 0.66 3 1 C2.4375 2.8125 2.4375 2.8125 1 5 C-1.31979381 6.03101947 -3.65429915 7.02936517 -6 8 C-8.37791979 10.04044964 -8.37791979 10.04044964 -10 12 C-10.66 11.67 -11.32 11.34 -12 11 C-10.75323147 9.72599623 -9.5024352 8.45593346 -8.25 7.1875 C-7.55390625 6.47980469 -6.8578125 5.77210937 -6.140625 5.04296875 C-4.15714882 3.14997962 -2.34018946 1.43170127 0 0 Z " fill="#82A74E" transform="translate(628,74)"/>
<path d="M0 0 C0.66 0 1.32 0 2 0 C2.66 0.99 3.32 1.98 4 3 C6.05003955 4.19232613 6.05003955 4.19232613 8 5 C8 5.66 8 6.32 8 7 C9.1446875 6.87625 9.1446875 6.87625 10.3125 6.75 C13 7 13 7 14.8125 9 C15.204375 9.66 15.59625 10.32 16 11 C12.14476727 10.43365608 9.54292367 9.35391316 6.3125 7.1875 C5.54550781 6.68605469 4.77851562 6.18460938 3.98828125 5.66796875 C1.89520929 3.91209109 1.01746202 2.50828873 0 0 Z " fill="#6E904D" transform="translate(647,245)"/>
<path d="M0 0 C2.45526122 2.45526122 2.41457598 3.60629818 2.75 7 C2.84796875 7.886875 2.9459375 8.77375 3.046875 9.6875 C3 12 3 12 1 14 C0.34 13.67 -0.32 13.34 -1 13 C-0.67 8.71 -0.34 4.42 0 0 Z " fill="#729A4B" transform="translate(645,213)"/>
<path d="M0 0 C1.98 0 3.96 0 6 0 C6.33 0.66 6.66 1.32 7 2 C6.01 2.33 5.02 2.66 4 3 C3.67 3.99 3.34 4.98 3 6 C2.34 6 1.68 6 1 6 C1 7.98 1 9.96 1 12 C0.67 12 0.34 12 0 12 C0 8.04 0 4.08 0 0 Z " fill="#96BE66" transform="translate(529,182)"/>
<path d="M0 0 C2.29395893 1.28773152 4.58516784 2.57996772 6.875 3.875 C7.52597656 4.23980469 8.17695312 4.60460937 8.84765625 4.98046875 C11.50393354 6.48660536 13.83019001 7.83019001 16 10 C12.57380621 9.55791048 9.50395069 8.52658028 6.3125 7.25 C5.54550781 6.94578125 4.77851562 6.6415625 3.98828125 6.328125 C1.40441035 4.60216015 0.90225067 2.91422142 0 0 Z " fill="#658748" transform="translate(739,174)"/>
<path d="M0 0 C0.33 0 0.66 0 1 0 C1.22512171 4.12426536 1.42725588 8.24933849 1.625 12.375 C1.68945312 13.550625 1.75390625 14.72625 1.8203125 15.9375 C1.871875 17.05898437 1.9234375 18.18046875 1.9765625 19.3359375 C2.02893066 20.37282715 2.08129883 21.4097168 2.13525391 22.47802734 C2 25 2 25 0 27 C-1.06432275 23.80703175 -1.03788336 21.79555059 -0.87890625 18.45703125 C-0.83056641 17.38388672 -0.78222656 16.31074219 -0.73242188 15.20507812 C-0.67634766 14.08552734 -0.62027344 12.96597656 -0.5625 11.8125 C-0.51029297 10.68134766 -0.45808594 9.55019531 -0.40429688 8.38476562 C-0.27456193 5.5895672 -0.13959359 2.7947206 0 0 Z " fill="#2D2D2F" transform="translate(41,117)"/>
<path d="M0 0 C0.66 0.99 1.32 1.98 2 3 C-1.625 8.75 -1.625 8.75 -5 11 C-4.50769231 4.6 -4.50769231 4.6 -1.9375 1.5625 C-0.9784375 0.7890625 -0.9784375 0.7890625 0 0 Z " fill="#618545" transform="translate(689,239)"/>
<path d="M0 0 C0.33 0 0.66 0 1 0 C1 2.97 1 5.94 1 9 C1.66 9 2.32 9 3 9 C3.33 12.3 3.66 15.6 4 19 C0.34247383 14.12329844 -0.12597334 11.71552078 -0.0625 5.8125 C-0.05347656 4.72582031 -0.04445313 3.63914063 -0.03515625 2.51953125 C-0.02355469 1.68808594 -0.01195312 0.85664063 0 0 Z " fill="#769851" transform="translate(643,226)"/>
<path d="M0 0 C0.33 0 0.66 0 1 0 C1.02690104 2.79173055 1.04679053 5.58320348 1.0625 8.375 C1.07087891 9.1690625 1.07925781 9.963125 1.08789062 10.78125 C1.11328125 16.7734375 1.11328125 16.7734375 0 19 C-0.99 19 -1.98 19 -3 19 C-2.68289063 18.15179688 -2.36578125 17.30359375 -2.0390625 16.4296875 C-0.97128768 12.90522775 -0.59958921 9.79329043 -0.375 6.125 C-0.30023437 4.97257813 -0.22546875 3.82015625 -0.1484375 2.6328125 C-0.09945312 1.76398438 -0.05046875 0.89515625 0 0 Z " fill="#9BC15D" transform="translate(542,189)"/>
<path d="M0 0 C0.99 1.32 1.98 2.64 3 4 C-1.89839001 7.89359206 -5.7950962 8.7242265 -12 9 C-9 7 -9 7 -6.375 6.5 C-5.59125 6.335 -4.8075 6.17 -4 6 C-3.67 5.34 -3.34 4.68 -3 4 C-2.01 3.67 -1.02 3.34 0 3 C0 2.01 0 1.02 0 0 Z " fill="#5E8440" transform="translate(769,230)"/>
<path d="M0 0 C0.99 0 1.98 0 3 0 C3.9765625 6.0546875 3.9765625 6.0546875 4 8 C3.34 8.66 2.68 9.32 2 10 C0 8 0 8 -0.1953125 6.0546875 C-0.13020833 4.03645833 -0.06510417 2.01822917 0 0 Z " fill="#93B85A" transform="translate(480,198)"/>
<path d="M0 0 C4.71403788 0.47939368 8.66579301 0.96834048 13 3 C12.01 3.33 11.02 3.66 10 4 C9.67 4.66 9.34 5.32 9 6 C6.525 5.01 6.525 5.01 4 4 C4 3.01 4 2.02 4 1 C2.68 0.67 1.36 0.34 0 0 Z " fill="#628641" transform="translate(755,184)"/>
<path d="M0 0 C1.98 0.66 3.96 1.32 6 2 C6 3.65 6 5.3 6 7 C4.68 7 3.36 7 2 7 C2 5.68 2 4.36 2 3 C1.01 3 0.02 3 -1 3 C-0.67 2.01 -0.34 1.02 0 0 Z " fill="#71A33C" transform="translate(762,145)"/>
<path d="M0 0 C6.16529701 0.31616908 10.17268433 3.49215061 15 7 C13 7 11 7 9 7 C8.34 6.01 7.68 5.02 7 4 C4.69855891 2.92863949 2.3659787 1.92010283 0 1 C0 0.67 0 0.34 0 0 Z " fill="#5E7D44" transform="translate(815,91)"/>
<path d="M0 0 C0.99 0.33 1.98 0.66 3 1 C1.9375 2.5 1.9375 2.5 0 4 C-3.5 4.375 -3.5 4.375 -7 4 C-8.71875 2.4765625 -8.71875 2.4765625 -10 1 C-9.36191406 1.01160156 -8.72382813 1.02320313 -8.06640625 1.03515625 C-7.24011719 1.04417969 -6.41382813 1.05320313 -5.5625 1.0625 C-4.32693359 1.07990234 -4.32693359 1.07990234 -3.06640625 1.09765625 C-1.00836062 1.23267348 -1.00836062 1.23267348 0 0 Z " fill="#9AB56E" transform="translate(309,205)"/>
<path d="M0 0 C1.9375 0.8125 1.9375 0.8125 4 2 C4.33 2.99 4.66 3.98 5 5 C5.66 5.33 6.32 5.66 7 6 C4.69 6 2.38 6 0 6 C-1 3 -1 3 0 0 Z " fill="#628F3B" transform="translate(825,97)"/>
<path d="M0 0 C2.97 0 5.94 0 9 0 C9.33 1.65 9.66 3.3 10 5 C6.08788267 3.84414715 3.1254959 2.64465038 0 0 Z " fill="#7FB344" transform="translate(692,69)"/>
<path d="M0 0 C0.66 0 1.32 0 2 0 C7.74031891 9.22551253 7.74031891 9.22551253 7 15 C6.72414063 14.43539062 6.44828125 13.87078125 6.1640625 13.2890625 C4.56101122 10.1367536 2.78540712 7.08906094 1.0234375 4.0234375 C0 2 0 2 0 0 Z " fill="#6C9049" transform="translate(722,204)"/>
<path d="M0 0 C0.66 0 1.32 0 2 0 C2.1953125 6.0546875 2.1953125 6.0546875 2 8 C1.34 8.66 0.68 9.32 0 10 C-1 9 -1 9 -1.125 5.5625 C-1 2 -1 2 0 0 Z " fill="#94B953" transform="translate(375,198)"/>
<path d="M0 0 C0.66 0 1.32 0 2 0 C1.14285714 8.57142857 1.14285714 8.57142857 -1 12 C-1.92470553 7.28400182 -2.22923777 4.32734391 0 0 Z " fill="#93AF63" transform="translate(563,182)"/>
<path d="M0 0 C0.99 0 1.98 0 3 0 C3 0.66 3 1.32 3 2 C7.455 2.99 7.455 2.99 12 4 C12 4.99 12 5.98 12 7 C10.37061226 6.40776866 8.74658872 5.80076372 7.125 5.1875 C5.76761719 4.68283203 5.76761719 4.68283203 4.3828125 4.16796875 C2 3 2 3 0 0 Z " fill="#658A48" transform="translate(737,232)"/>
<path d="M0 0 C0.33 0 0.66 0 1 0 C1.49230769 6.4 1.49230769 6.4 -1 9.4375 C-1.99 10.2109375 -1.99 10.2109375 -3 11 C-3 8.69 -3 6.38 -3 4 C-2.01 3.67 -1.02 3.34 0 3 C0 2.01 0 1.02 0 0 Z " fill="#8BBD4B" transform="translate(606,104)"/>
<path d="M0 0 C1.32 0.33 2.64 0.66 4 1 C4 6.28 4 11.56 4 17 C3.67 17 3.34 17 3 17 C2.95101563 16.00097656 2.90203125 15.00195312 2.8515625 13.97265625 C2.77679688 12.68230469 2.70203125 11.39195312 2.625 10.0625 C2.55539062 8.77472656 2.48578125 7.48695313 2.4140625 6.16015625 C2.27742188 5.11730469 2.14078125 4.07445312 2 3 C1.34 2.67 0.68 2.34 0 2 C0 1.34 0 0.68 0 0 Z " fill="#9BBA71" transform="translate(413,183)"/>
<path d="M0 0 C2.475 0.99 2.475 0.99 5 2 C5 2.66 5 3.32 5 4 C5.99 4 6.98 4 8 4 C8 4.99 8 5.98 8 7 C4.21388773 6.45912682 2.44599233 4.88277668 0 2 C0 1.34 0 0.68 0 0 Z " fill="#7FAB4C" transform="translate(616,167)"/>
<path d="M0 0 C0.66 0 1.32 0 2 0 C2 2.64 2 5.28 2 8 C0.68 8.33 -0.64 8.66 -2 9 C-1.34 6.03 -0.68 3.06 0 0 Z " fill="#98C15F" transform="translate(333,199)"/>
<path d="M0 0 C1.98 0 3.96 0 6 0 C5.67 0.99 5.34 1.98 5 3 C5.38932856 5.14255793 5.38932856 5.14255793 6 7 C5.34 6.67 4.68 6.34 4 6 C4 5.34 4 4.68 4 4 C2.68 3.34 1.36 2.68 0 2 C0 1.34 0 0.68 0 0 Z " fill="#74A640" transform="translate(713,192)"/>
<path d="M0 0 C0.99 0.33 1.98 0.66 3 1 C3.33 2.65 3.66 4.3 4 6 C3.01 6.66 2.02 7.32 1 8 C0.67 5.36 0.34 2.72 0 0 Z " fill="#92AF5B" transform="translate(551,182)"/>
<path d="M0 0 C0.33 0 0.66 0 1 0 C1.1953125 2.01822917 1.390625 4.03645833 1.5859375 6.0546875 C1.86374749 8.22668245 1.86374749 8.22668245 4 10 C3.01 10.33 2.02 10.66 1 11 C0.67 11.99 0.34 12.98 0 14 C0 9.38 0 4.76 0 0 Z " fill="#323234" transform="translate(41,80)"/>
<path d="M0 0 C0.66 0 1.32 0 2 0 C2.1875 3.3125 2.1875 3.3125 2 7 C1.01 7.99 0.02 8.98 -1 10 C-0.67 6.7 -0.34 3.4 0 0 Z " fill="#95BC56" transform="translate(493,198)"/>
<path d="M0 0 C0.66 0 1.32 0 2 0 C2 0.99 2 1.98 2 3 C1.34 3 0.68 3 0 3 C0 6.63 0 10.26 0 14 C-0.33 14 -0.66 14 -1 14 C-1.02685938 11.85423363 -1.04633088 9.70837355 -1.0625 7.5625 C-1.07410156 6.36753906 -1.08570313 5.17257813 -1.09765625 3.94140625 C-1 1 -1 1 0 0 Z " fill="#98B56B" transform="translate(294,185)"/>
<path d="M0 0 C5.75 1.75 5.75 1.75 8 4 C2.46153846 4.36923077 2.46153846 4.36923077 0.125 2.5 C-0.24625 2.005 -0.6175 1.51 -1 1 C-0.67 0.67 -0.34 0.34 0 0 Z " fill="#96BA63" transform="translate(459,205)"/>
<path d="M0 0 C2.64 0 5.28 0 8 0 C8 0.99 8 1.98 8 3 C5.69 3 3.38 3 1 3 C0.67 2.01 0.34 1.02 0 0 Z " fill="#A0B871" transform="translate(366,206)"/>
<path d="M0 0 C2 4 2 4 3 7 C2.0625 9.1875 2.0625 9.1875 1 11 C0.67 11 0.34 11 0 11 C0 7.37 0 3.74 0 0 Z " fill="#96BA63" transform="translate(338,190)"/>
<path d="M0 0 C1.66611905 -0.042721 3.33382885 -0.04063832 5 0 C6 1 6 1 6.0625 4.0625 C6.041875 5.031875 6.02125 6.00125 6 7 C4 4 4 4 4 2 C2.68 2 1.36 2 0 2 C0 1.34 0 0.68 0 0 Z " fill="#9BB95A" transform="translate(354,182)"/>
<path d="M0 0 C2.97 0 5.94 0 9 0 C9 0.66 9 1.32 9 2 C6.69 2.33 4.38 2.66 2 3 C2 2.34 2 1.68 2 1 C1.34 0.67 0.68 0.34 0 0 Z " fill="#9FBD72" transform="translate(272,182)"/>
<path d="M0 0 C0.66 0.66 1.32 1.32 2 2 C2.66 1.67 3.32 1.34 4 1 C3.34 2.65 2.68 4.3 2 6 C1.01 6 0.02 6 -1 6 C-1.042721 4.33388095 -1.04063832 2.66617115 -1 1 C-0.67 0.67 -0.34 0.34 0 0 Z " fill="#5D8A3D" transform="translate(721,146)"/>
<path d="M0 0 C1.98 0 3.96 0 6 0 C6 2.97 6 5.94 6 9 C5.67 9 5.34 9 5 9 C5 7.02 5 5.04 5 3 C4.34 3 3.68 3 3 3 C3 2.34 3 1.68 3 1 C2.01 0.67 1.02 0.34 0 0 Z " fill="#2F2E32" transform="translate(201,66)"/>
<path d="M0 0 C3.14737182 0.69941596 6.02588876 1.76078698 9 3 C8.01 3.66 7.02 4.32 6 5 C1.125 2.25 1.125 2.25 0 0 Z " fill="#719B45" transform="translate(718,200)"/>
<path d="M0 0 C2.475 0.99 2.475 0.99 5 2 C5 2.66 5 3.32 5 4 C3.02 4 1.04 4 -1 4 C-0.67 2.68 -0.34 1.36 0 0 Z " fill="#609038" transform="translate(771,26)"/>
<path d="M0 0 C1.32 0 2.64 0 4 0 C4 0.99 4 1.98 4 3 C2.68 3 1.36 3 0 3 C0 2.01 0 1.02 0 0 Z " fill="#93AC67" transform="translate(379,206)"/>
<path d="M0 0 C1.32 0 2.64 0 4 0 C4 0.99 4 1.98 4 3 C2.68 2.67 1.36 2.34 0 2 C0 1.34 0 0.68 0 0 Z " fill="#98AA6F" transform="translate(474,206)"/>
<path d="M0 0 C0.66 0 1.32 0 2 0 C2 1.32 2 2.64 2 4 C1.34 4 0.68 4 0 4 C0 2.68 0 1.36 0 0 Z " fill="#9CBA6F" transform="translate(498,177)"/>
</svg>
